<svg width="20" height="21" viewBox="0 0 20 21" fill="none" xmlns="http://www.w3.org/2000/svg">
<path d="M18.334 5.5013V7.51797C18.334 8.83463 17.5007 9.66797 16.184 9.66797H13.334V3.84297C13.334 2.91797 14.0923 2.16797 15.0173 2.16797C15.9257 2.1763 16.759 2.54297 17.359 3.14297C17.959 3.7513 18.334 4.58464 18.334 5.5013Z" stroke="white" stroke-width="1.5" stroke-miterlimit="10" stroke-linecap="round" stroke-linejoin="round"/>
<path d="M1.66602 6.33464V18.0013C1.66602 18.693 2.44935 19.0846 2.99935 18.668L4.42435 17.6013C4.75768 17.3513 5.22435 17.3846 5.52435 17.6846L6.90768 19.0763C7.23268 19.4013 7.76602 19.4013 8.09102 19.0763L9.49102 17.6763C9.78268 17.3846 10.2493 17.3513 10.5743 17.6013L11.9993 18.668C12.5493 19.0763 13.3327 18.6846 13.3327 18.0013V3.83464C13.3327 2.91797 14.0827 2.16797 14.9993 2.16797H5.83268H4.99935C2.49935 2.16797 1.66602 3.65964 1.66602 5.5013V6.33464Z" stroke="white" stroke-width="1.5" stroke-miterlimit="10" stroke-linecap="round" stroke-linejoin="round"/>
<path d="M7.5 11.3398H10" stroke="white" stroke-width="1.5" stroke-linecap="round" stroke-linejoin="round"/>
<path d="M7.5 8.00781H10" stroke="white" stroke-width="1.5" stroke-linecap="round" stroke-linejoin="round"/>
<path d="M4.99609 11.332H5.00358" stroke="white" stroke-width="2" stroke-linecap="round" stroke-linejoin="round"/>
<path d="M4.99609 8H5.00358" stroke="white" stroke-width="2" stroke-linecap="round" stroke-linejoin="round"/>
</svg>
