<svg width="21" height="21" viewBox="0 0 21 21" fill="none" xmlns="http://www.w3.org/2000/svg">
<path d="M3.00781 9.85156V13.5932C3.00781 17.3349 4.50781 18.8349 8.24948 18.8349H12.7411C16.4828 18.8349 17.9828 17.3349 17.9828 13.5932V9.85156" stroke="#FFD01A" stroke-width="1.5" stroke-linecap="round" stroke-linejoin="round"/>
<path d="M10.4997 10.5013C12.0247 10.5013 13.1497 9.25964 12.9997 7.73464L12.4497 2.16797H8.55808L7.99975 7.73464C7.84975 9.25964 8.97475 10.5013 10.4997 10.5013Z" stroke="#FFD01A" stroke-width="1.5" stroke-linecap="round" stroke-linejoin="round"/>
<path d="M15.7577 10.5013C17.441 10.5013 18.6744 9.13464 18.5077 7.45964L18.2743 5.16797C17.9743 3.0013 17.141 2.16797 14.9577 2.16797H12.416L12.9993 8.00964C13.141 9.38464 14.3827 10.5013 15.7577 10.5013Z" stroke="#FFD01A" stroke-width="1.5" stroke-linecap="round" stroke-linejoin="round"/>
<path d="M5.20063 10.5013C6.57563 10.5013 7.8173 9.38464 7.95063 8.00964L8.13397 6.16797L8.53397 2.16797H5.9923C3.80897 2.16797 2.97563 3.0013 2.67563 5.16797L2.45063 7.45964C2.28397 9.13464 3.5173 10.5013 5.20063 10.5013Z" stroke="#FFD01A" stroke-width="1.5" stroke-linecap="round" stroke-linejoin="round"/>
<path d="M10.4993 14.668C9.10768 14.668 8.41602 15.3596 8.41602 16.7513V18.8346H12.5827V16.7513C12.5827 15.3596 11.891 14.668 10.4993 14.668Z" stroke="#FFD01A" stroke-width="1.5" stroke-linecap="round" stroke-linejoin="round"/>
</svg>
