<svg width="21" height="25" viewBox="0 0 21 25" fill="none" xmlns="http://www.w3.org/2000/svg">
<path d="M17.2837 13.2632C17.2558 10.2311 19.83 8.75602 19.9478 8.68735C18.4898 6.61487 16.2301 6.33171 15.436 6.30913C13.5381 6.1144 11.6971 7.41639 10.7303 7.41639C9.74424 7.41639 8.25544 6.32795 6.65086 6.35993C4.58604 6.39098 2.65436 7.55656 1.59493 9.36657C-0.591465 13.0571 1.03917 18.4806 3.13391 21.4637C4.18176 22.9247 5.40618 24.5559 7.00883 24.4985C8.57675 24.4355 9.16242 23.5239 11.0545 23.5239C12.9293 23.5239 13.4793 24.4985 15.1138 24.4618C16.7965 24.4355 17.8559 22.9943 18.8671 21.5201C20.078 19.8456 20.5643 18.1964 20.5836 18.1118C20.5441 18.0986 17.3156 16.8973 17.2837 13.2632Z" fill="#FFD01A"/>
<path d="M14.1962 4.34673C15.0395 3.31849 15.6164 1.91959 15.4563 0.5C14.2357 0.552682 12.7093 1.32316 11.8303 2.32882C11.0526 3.215 10.3579 4.66752 10.5374 6.03349C11.9084 6.13321 13.3162 5.35897 14.1962 4.34673Z" fill="#FFD01A"/>
</svg>
