<svg width="34" height="123" viewBox="0 0 34 123" fill="none" xmlns="http://www.w3.org/2000/svg">
<path d="M18.88 107.74L18.88 102.82L24.16 102.82C30.24 102.82 33.2 105.78 33.2 112.26C33.2 119.26 29.72 122.1 23.32 122.1L10.08 122.1C3.68 122.1 0.199998 119.26 0.199997 112.26C0.199997 105.78 3.16 102.82 9.24 102.82L14.16 102.82L14.16 107.74L9.72 107.74C6.04 107.74 4.92 109.3 4.92 112.42C4.92 115.66 6.2 117.14 10.68 117.14L22.72 117.14C27.2 117.14 28.48 115.66 28.48 112.42C28.48 109.3 27.36 107.74 23.68 107.74L18.88 107.74ZM4 91.7828C4 85.5828 7 83.1828 13.04 83.1828L24.16 83.1828C30.2 83.1828 33.2 85.5828 33.2 91.7828C33.2 97.9428 30.2 100.343 24.16 100.343L13.04 100.343C7 100.343 4 97.9428 4 91.7828ZM28.48 91.7828C28.48 89.2628 27.36 88.1428 23.44 88.1428L13.76 88.1428C9.84 88.1428 8.72 89.2628 8.72 91.7828C8.72 94.3028 9.84 95.3828 13.76 95.3828L23.44 95.3828C27.36 95.3828 28.48 94.3028 28.48 91.7828ZM33 64.2159L33 69.1759L12.48 69.1759C9.76 69.1759 8.76 70.1359 8.76 72.4959C8.76 74.4959 9.52 75.6959 12.24 75.6959L33 75.6959L33 80.6559L4.2 80.6559L4.2 75.6959L11 75.6959C6.12 75.6959 4 73.9759 4 70.1759C4 66.1759 6.16 64.2159 11.56 64.2159L33 64.2159ZM33 54.8219L33 59.7419L8.12 59.7419L8.12 62.4619L4.2 62.4619L4.2 59.7419L0.919995 59.7419L0.919995 54.8219L4.2 54.8219L4.2 50.9419L8.12 50.9419L8.12 54.8219L33 54.8219ZM11.24 44.17L13.68 44.17L13.68 49.13L10.6 49.13C6.04 49.13 4 46.61 4 41.13C4 35.37 5.95999 33.13 11.48 33.13L33 33.13L33 38.09L27.4 38.09C31.32 38.09 33.2 39.85 33.2 43.77C33.2 47.61 31.32 49.57 26.84 49.57L22.6 49.57C15.52 49.57 16.48 42.49 15.2 38.09L12.08 38.09C9.39999 38.09 8.64 38.81 8.64 41.29C8.64 43.49 9.27999 44.17 11.24 44.17ZM26.2 44.65C28.28 44.65 29.16 43.85 29.16 42.09C29.16 39.29 28.44 38.09 26.36 38.09L18.84 38.09C19.64 42.33 19.64 44.65 22.12 44.65L26.2 44.65ZM20.6 18.4225L20.6 13.4625L25.2 13.4625C30.56 13.4625 33.2 16.0625 33.2 22.0625C33.2 28.2225 30.2 30.6225 24.16 30.6225L13.04 30.6225C6.99999 30.6225 3.99999 28.2225 3.99999 22.0625C3.99999 16.0625 6.63999 13.4625 12 13.4625L16.48 13.4625L16.48 18.4225L12.72 18.4225C9.55999 18.4225 8.76 19.5825 8.76 22.1025C8.76 24.5825 9.83999 25.6625 13.76 25.6625L23.44 25.6625C27.36 25.6625 28.44 24.5825 28.44 22.1025C28.44 19.5825 27.64 18.4225 24.48 18.4225L20.6 18.4225ZM33 4.55312L33 9.47312L8.11999 9.47313L8.11999 12.1931L4.19999 12.1931L4.19999 9.47313L0.919993 9.47313L0.919993 4.55313L4.19999 4.55313L4.19999 0.673125L8.11999 0.673125L8.11999 4.55313L33 4.55312Z" fill="#101010"/>
</svg>
