<svg width="19" height="418" viewBox="0 0 19 418" fill="none" xmlns="http://www.w3.org/2000/svg">
<path d="M11.123 417.977L11.123 416.209C12.6465 416.043 13.6523 414.598 13.6523 412.586C13.6523 410.682 12.6465 409.295 11.2598 409.295C10.0684 409.295 9.33594 410.125 8.84766 412.02L8.37891 413.826C7.71484 416.424 6.57227 417.576 4.6582 417.576C2.31445 417.576 0.673828 415.525 0.673828 412.596C0.673828 409.793 2.33398 407.762 4.69727 407.684L4.69727 409.441C3.18359 409.598 2.25586 410.818 2.25586 412.654C2.25586 414.48 3.20312 415.75 4.58008 415.75C5.64453 415.75 6.2793 414.969 6.77734 413.055L7.16797 411.58C7.90039 408.66 9.02344 407.479 11.0449 407.479C13.623 407.479 15.2344 409.51 15.2344 412.752C15.2344 415.74 13.6133 417.811 11.123 417.977ZM6.14258 401.619C6.14258 403.211 7.36328 404.324 9.05273 404.432L9.05273 398.914C7.35351 398.953 6.14258 400.018 6.14258 401.619ZM12.0898 398.953L12.0898 397.283C13.8672 397.576 15.1758 399.295 15.1758 401.512C15.1758 404.422 13.1543 406.189 9.96094 406.189C6.80664 406.189 4.66797 404.393 4.66797 401.59C4.66797 398.846 6.66016 397.156 9.73633 397.156L10.3809 397.156L10.3809 404.441L10.4785 404.441C12.4219 404.441 13.7012 403.299 13.7012 401.473C13.7012 400.184 13.0469 399.236 12.0898 398.953ZM15 395.437L4.84375 395.437L4.84375 393.836L6.46484 393.836L6.46484 393.797C5.37109 393.23 4.66797 392.146 4.66797 390.574C4.66797 388.348 6.10351 387.059 8.4082 387.059L15 387.059L15 388.758L8.71094 388.758C7.07031 388.758 6.17187 389.529 6.17187 391.092C6.17187 392.693 7.30469 393.738 9.02344 393.738L15 393.738L15 395.437ZM15.1758 381.043C15.1758 383.631 13.1055 385.389 9.92187 385.389C6.73828 385.389 4.66797 383.641 4.66797 381.082C4.66797 379.627 5.38086 378.455 6.49414 377.85L6.49414 377.811L0.908201 377.811L0.908201 376.111L15 376.111L15 377.732L13.2812 377.732L13.2812 377.762C14.4531 378.416 15.1758 379.578 15.1758 381.043ZM6.16211 380.721C6.16211 382.518 7.62695 383.65 9.92187 383.65C12.2266 383.65 13.6816 382.518 13.6816 380.721C13.6816 378.973 12.1973 377.801 9.92187 377.801C7.65625 377.801 6.16211 378.973 6.16211 380.721ZM4.84375 361.375L15 361.375L15 362.986L13.3496 362.986L13.3496 363.025C14.5215 363.631 15.1758 364.686 15.1758 366.248C15.1758 368.465 13.7402 369.764 11.4355 369.764L4.84375 369.764L4.84375 368.064L11.1328 368.064C12.7832 368.064 13.6719 367.293 13.6719 365.721C13.6719 364.07 12.5391 363.074 10.8105 363.074L4.84375 363.074L4.84375 361.375ZM7.64648 359.344C5.9082 359.344 4.66797 357.791 4.66797 355.555C4.66797 353.455 5.91797 351.912 7.63672 351.834L7.63672 353.455C6.66015 353.572 6.05468 354.363 6.05468 355.613C6.05468 356.854 6.66992 357.674 7.55859 357.674C8.26172 357.674 8.73047 357.137 9.02343 355.984L9.40429 354.412C9.92187 352.361 10.6641 351.619 12.1582 351.619C13.9258 351.619 15.1758 353.289 15.1758 355.662C15.1758 357.889 13.9648 359.441 12.168 359.617L12.168 357.918C13.2227 357.732 13.7891 356.932 13.7891 355.555C13.7891 354.178 13.2031 353.328 12.2852 353.328C11.5625 353.328 11.1719 353.748 10.8691 354.891L10.4102 356.678C9.95117 358.465 9.0332 359.344 7.64648 359.344ZM13.7305 342.4C13.7305 340.799 12.6074 339.568 11.1426 339.568L10.3125 339.568L10.4785 342.283C10.5664 343.65 11.1719 344.432 12.1289 344.432C13.0957 344.432 13.7305 343.621 13.7305 342.4ZM15.1758 342.781C15.1758 344.803 13.9551 346.16 12.1289 346.16C10.3906 346.16 9.29687 344.822 9.16015 342.479L8.99414 339.568L8.14453 339.568C6.90429 339.568 6.16211 340.389 6.16211 341.795C6.16211 343.104 6.77734 343.924 7.77343 344.139L7.77343 345.779C6.01562 345.662 4.66797 344.158 4.66797 341.756C4.66797 339.373 5.95703 337.869 7.97851 337.869L15 337.869L15 339.48L13.2519 339.48L13.2519 339.52C14.4141 340.125 15.1758 341.414 15.1758 342.781ZM15 335.711L4.84375 335.711L4.84375 334.109L6.46484 334.109L6.46484 334.07C5.37109 333.504 4.66796 332.42 4.66796 330.848C4.66796 328.621 6.10351 327.332 8.4082 327.332L15 327.332L15 329.031L8.71093 329.031C7.07031 329.031 6.17187 329.803 6.17187 331.365C6.17187 332.967 7.30468 334.012 9.02343 334.012L15 334.012L15 335.711ZM6.14257 316.99C6.14257 318.582 7.36328 319.695 9.05273 319.803L9.05273 314.285C7.35351 314.324 6.14257 315.389 6.14257 316.99ZM12.0898 314.324L12.0898 312.654C13.8672 312.947 15.1758 314.666 15.1758 316.883C15.1758 319.793 13.1543 321.561 9.96093 321.561C6.80664 321.561 4.66796 319.764 4.66796 316.961C4.66796 314.217 6.66015 312.527 9.73632 312.527L10.3809 312.527L10.3809 319.812L10.4785 319.812C12.4219 319.812 13.7012 318.67 13.7012 316.844C13.7012 315.555 13.0469 314.607 12.0898 314.324ZM15 310.809L4.84375 310.809L4.84375 309.207L6.46484 309.207L6.46484 309.168C5.39062 308.689 4.66796 307.654 4.66796 306.287C4.66796 304.9 5.37109 303.875 6.60156 303.436L6.60156 303.396C5.39062 302.83 4.66796 301.639 4.66796 300.213C4.66796 298.201 5.97656 296.902 7.98828 296.902L15 296.902L15 298.602L8.3789 298.602C6.99218 298.602 6.17187 299.373 6.17187 300.711C6.17187 302.059 7.16796 303.006 8.54492 303.006L15 303.006L15 304.705L8.19335 304.705C6.97265 304.705 6.17187 305.525 6.17187 306.785C6.17187 308.133 7.22656 309.109 8.63281 309.109L15 309.109L15 310.809ZM13.7305 291.385C13.7305 289.783 12.6074 288.553 11.1426 288.553L10.3125 288.553L10.4785 291.268C10.5664 292.635 11.1719 293.416 12.1289 293.416C13.0957 293.416 13.7305 292.605 13.7305 291.385ZM15.1758 291.766C15.1758 293.787 13.9551 295.145 12.1289 295.145C10.3906 295.145 9.29687 293.807 9.16015 291.463L8.99413 288.553L8.14453 288.553C6.90429 288.553 6.1621 289.373 6.1621 290.779C6.1621 292.088 6.77734 292.908 7.77343 293.123L7.77343 294.764C6.01562 294.646 4.66796 293.143 4.66796 290.74C4.66796 288.357 5.95703 286.854 7.97851 286.854L15 286.854L15 288.465L13.2519 288.465L13.2519 288.504C14.4141 289.109 15.1758 290.398 15.1758 291.766ZM15 284.607L4.84374 284.607L4.84374 282.908L15 282.908L15 284.607ZM3.13476 283.758C3.13476 284.334 2.65624 284.812 2.08007 284.812C1.49413 284.812 1.02538 284.334 1.02538 283.758C1.02538 283.172 1.49413 282.693 2.08007 282.693C2.65624 282.693 3.13476 283.172 3.13476 283.758ZM15 280.525L0.908197 280.525L0.908197 278.826L15 278.826L15 280.525ZM15.1758 268.221C15.1758 271.033 13.1543 272.928 9.92187 272.928C6.67968 272.928 4.66796 271.033 4.66796 268.221C4.66796 265.418 6.67968 263.523 9.92187 263.523C13.1543 263.523 15.1758 265.418 15.1758 268.221ZM13.6816 268.221C13.6816 266.424 12.3144 265.252 9.92187 265.252C7.52929 265.252 6.1621 266.424 6.1621 268.221C6.1621 270.018 7.52929 271.199 9.92187 271.199C12.3144 271.199 13.6816 270.018 13.6816 268.221ZM15 261.805L4.84374 261.805L4.84374 260.203L6.5039 260.203L6.5039 260.164C5.38085 259.832 4.66796 258.895 4.66796 257.703C4.66796 257.41 4.71679 257.156 4.73632 257.02L6.38671 257.02C6.33788 257.156 6.28906 257.518 6.28906 257.928C6.28906 259.246 7.23632 260.105 8.67187 260.105L15 260.105L15 261.805ZM8.17382 243.094L8.17382 244.754C7.0703 244.998 6.1621 245.857 6.1621 247.352C6.1621 249.109 7.61718 250.301 9.92187 250.301C12.2851 250.301 13.6816 249.09 13.6816 247.332C13.6816 245.945 12.9492 245.037 11.7285 244.744L11.7285 243.074C13.75 243.338 15.1758 245.037 15.1758 247.342C15.1758 250.154 13.1934 252.029 9.92187 252.029C6.71874 252.029 4.66796 250.164 4.66796 247.361C4.66796 244.822 6.34765 243.309 8.17382 243.094ZM13.7305 238.162C13.7305 236.561 12.6074 235.33 11.1426 235.33L10.3125 235.33L10.4785 238.045C10.5664 239.412 11.1719 240.193 12.1289 240.193C13.0957 240.193 13.7305 239.383 13.7305 238.162ZM15.1758 238.543C15.1758 240.564 13.9551 241.922 12.1289 241.922C10.3906 241.922 9.29687 240.584 9.16015 238.24L8.99413 235.33L8.14452 235.33C6.90429 235.33 6.1621 236.15 6.1621 237.557C6.1621 238.865 6.77734 239.686 7.77343 239.9L7.77343 241.541C6.01562 241.424 4.66796 239.92 4.66796 237.518C4.66796 235.135 5.95702 233.631 7.97851 233.631L15 233.631L15 235.242L13.2519 235.242L13.2519 235.281C14.4141 235.887 15.1758 237.176 15.1758 238.543ZM15 231.385L0.908195 231.385L0.908195 229.686L15 229.686L15 231.385ZM15 227.303L0.908195 227.303L0.908195 225.604L15 225.604L15 227.303ZM15.1758 214.998C15.1758 217.811 13.1543 219.705 9.92187 219.705C6.67968 219.705 4.66796 217.811 4.66796 214.998C4.66796 212.195 6.67968 210.301 9.92187 210.301C13.1543 210.301 15.1758 212.195 15.1758 214.998ZM13.6816 214.998C13.6816 213.201 12.3144 212.029 9.92187 212.029C7.52929 212.029 6.1621 213.201 6.1621 214.998C6.1621 216.795 7.52929 217.977 9.92187 217.977C12.3144 217.977 13.6816 216.795 13.6816 214.998ZM4.84374 200.242L15 200.242L15 201.854L13.3496 201.854L13.3496 201.893C14.5215 202.498 15.1758 203.553 15.1758 205.115C15.1758 207.332 13.7402 208.631 11.4355 208.631L4.84374 208.631L4.84374 206.932L11.1328 206.932C12.7832 206.932 13.6719 206.16 13.6719 204.588C13.6719 202.937 12.5391 201.941 10.8105 201.941L4.84374 201.941L4.84374 200.242ZM15 198.035L4.84374 198.035L4.84374 196.434L6.5039 196.434L6.5039 196.395C5.38085 196.062 4.66796 195.125 4.66796 193.934C4.66796 193.641 4.71679 193.387 4.73632 193.25L6.38671 193.25C6.33788 193.387 6.28905 193.748 6.28905 194.158C6.28905 195.477 7.23632 196.336 8.67187 196.336L15 196.336L15 198.035ZM15 187.674L0.908193 187.674L0.908193 185.975L6.46483 185.975L6.46483 185.936C5.33202 185.369 4.66796 184.256 4.66796 182.713C4.66796 180.486 6.17186 179.139 8.43749 179.139L15 179.139L15 180.838L8.74999 180.838C7.13866 180.838 6.17186 181.648 6.17186 183.24C6.17186 184.93 7.32421 185.975 9.08202 185.975L15 185.975L15 187.674ZM6.14257 172.908C6.14257 174.5 7.36327 175.613 9.05272 175.721L9.05272 170.203C7.3535 170.242 6.14257 171.307 6.14257 172.908ZM12.0898 170.242L12.0898 168.572C13.8672 168.865 15.1758 170.584 15.1758 172.801C15.1758 175.711 13.1543 177.479 9.96093 177.479C6.80663 177.479 4.66796 175.682 4.66796 172.879C4.66796 170.135 6.66015 168.445 9.73632 168.445L10.3808 168.445L10.3808 175.73L10.4785 175.73C12.4219 175.73 13.7012 174.588 13.7012 172.762C13.7012 171.473 13.0469 170.525 12.0898 170.242ZM15 166.639L0.908192 166.639L0.908192 164.939L15 164.939L15 166.639ZM4.66796 157.713C4.66796 155.125 6.73827 153.367 9.92186 153.367C13.1055 153.367 15.1758 155.115 15.1758 157.674C15.1758 159.129 14.4629 160.301 13.3496 160.906L13.3496 160.945L18.3887 160.945L18.3887 162.645L4.84374 162.645L4.84374 161.033L6.56249 161.033L6.56249 160.994C5.41991 160.369 4.66796 159.187 4.66796 157.713ZM13.6816 158.045C13.6816 156.238 12.2266 155.105 9.92186 155.105C7.62694 155.105 6.1621 156.238 6.1621 158.045C6.1621 159.783 7.666 160.955 9.92186 160.955C12.1875 160.955 13.6816 159.783 13.6816 158.045ZM15 147.459L0.908191 147.459L0.908191 145.76L15 145.76L15 147.459ZM15 143.377L4.84374 143.377L4.84374 141.678L15 141.678L15 143.377ZM3.13475 142.527C3.13475 143.104 2.65624 143.582 2.08007 143.582C1.49413 143.582 1.02538 143.104 1.02538 142.527C1.02538 141.941 1.49413 141.463 2.08007 141.463C2.65624 141.463 3.13475 141.941 3.13475 142.527ZM15 139.383L4.84374 139.383L4.84374 137.781L6.46483 137.781L6.46483 137.742C5.37108 137.176 4.66796 136.092 4.66796 134.52C4.66796 132.293 6.1035 131.004 8.40819 131.004L15 131.004L15 132.703L8.71092 132.703C7.0703 132.703 6.17186 133.475 6.17186 135.037C6.17186 136.639 7.30468 137.684 9.02343 137.684L15 137.684L15 139.383ZM6.14257 124.764C6.14257 126.355 7.36327 127.469 9.05272 127.576L9.05272 122.059C7.3535 122.098 6.14257 123.162 6.14257 124.764ZM12.0898 122.098L12.0898 120.428C13.8672 120.721 15.1758 122.439 15.1758 124.656C15.1758 127.566 13.1543 129.334 9.96092 129.334C6.80663 129.334 4.66796 127.537 4.66796 124.734C4.66796 121.99 6.66014 120.301 9.73632 120.301L10.3808 120.301L10.3808 127.586L10.4785 127.586C12.4219 127.586 13.7012 126.443 13.7012 124.617C13.7012 123.328 13.0469 122.381 12.0898 122.098ZM15 113.934L6.24022 113.934L6.24022 115.35L4.84374 115.35L4.84374 113.934L3.71092 113.934C1.7578 113.934 0.830065 113.025 0.830065 111.15C0.830065 110.77 0.869127 110.359 0.90819 110.115L2.28514 110.115C2.25585 110.32 2.22655 110.604 2.22655 110.887C2.22655 111.805 2.71483 112.244 3.72069 112.244L4.84374 112.244L4.84374 110.164L6.24022 110.164L6.24022 112.234L15 112.234L15 113.934ZM15.1758 104.686C15.1758 107.498 13.1543 109.393 9.92186 109.393C6.67967 109.393 4.66796 107.498 4.66796 104.686C4.66795 101.883 6.67967 99.9883 9.92186 99.9883C13.1543 99.9883 15.1758 101.883 15.1758 104.686ZM13.6816 104.686C13.6816 102.889 12.3144 101.717 9.92186 101.717C7.52928 101.717 6.1621 102.889 6.1621 104.686C6.1621 106.482 7.52928 107.664 9.92186 107.664C12.3144 107.664 13.6816 106.482 13.6816 104.686ZM15 98.2695L4.84374 98.2695L4.84374 96.668L6.50389 96.668L6.50389 96.6289C5.38085 96.2969 4.66795 95.3594 4.66795 94.168C4.66795 93.875 4.71678 93.6211 4.73631 93.4844L6.3867 93.4844C6.33788 93.6211 6.28905 93.9824 6.28905 94.3926C6.28905 95.7109 7.23631 96.5703 8.67186 96.5703L15 96.5703L15 98.2695ZM13.7305 84.6465C13.7305 83.0449 12.6074 81.8145 11.1426 81.8145L10.3125 81.8145L10.4785 84.5293C10.5664 85.8965 11.1719 86.6777 12.1289 86.6777C13.0957 86.6777 13.7305 85.8672 13.7305 84.6465ZM15.1758 85.0273C15.1758 87.0488 13.9551 88.4062 12.1289 88.4062C10.3906 88.4062 9.29686 87.0684 9.16014 84.7246L8.99413 81.8145L8.14452 81.8145C6.90428 81.8145 6.16209 82.6348 6.16209 84.041C6.16209 85.3496 6.77733 86.1699 7.77342 86.3848L7.77342 88.0254C6.01561 87.9082 4.66795 86.4043 4.66795 84.002C4.66795 81.6191 5.95702 80.1152 7.9785 80.1152L15 80.1152L15 81.7266L13.2519 81.7266L13.2519 81.7656C14.414 82.3711 15.1758 83.6602 15.1758 85.0273ZM7.64647 78.1328C5.90819 78.1328 4.66795 76.5801 4.66795 74.3437C4.66795 72.2441 5.91795 70.7012 7.6367 70.623L7.6367 72.2441C6.66014 72.3613 6.05467 73.1523 6.05467 74.4023C6.05467 75.6426 6.66991 76.4629 7.55858 76.4629C8.2617 76.4629 8.73045 75.9258 9.02342 74.7734L9.40428 73.2012C9.92186 71.1504 10.664 70.4082 12.1582 70.4082C13.9258 70.4082 15.1758 72.0781 15.1758 74.4512C15.1758 76.6777 13.9648 78.2305 12.168 78.4062L12.168 76.707C13.2226 76.5215 13.789 75.7207 13.789 74.3437C13.789 72.9668 13.2031 72.1172 12.2851 72.1172C11.5625 72.1172 11.1719 72.5371 10.8691 73.6797L10.4101 75.4668C9.95116 77.2539 9.03319 78.1328 7.64647 78.1328ZM7.64647 68.8164C5.90819 68.8164 4.66795 67.2637 4.66795 65.0273C4.66795 62.9277 5.91795 61.3848 7.6367 61.3066L7.6367 62.9277C6.66014 63.0449 6.05467 63.8359 6.05467 65.0859C6.05467 66.3262 6.66991 67.1465 7.55858 67.1465C8.2617 67.1465 8.73045 66.6094 9.02342 65.457L9.40428 63.8848C9.92186 61.834 10.664 61.0918 12.1582 61.0918C13.9258 61.0918 15.1758 62.7617 15.1758 65.1348C15.1758 67.3613 13.9648 68.9141 12.168 69.0898L12.168 67.3906C13.2226 67.2051 13.789 66.4043 13.789 65.0273C13.789 63.6504 13.2031 62.8008 12.2851 62.8008C11.5625 62.8008 11.1719 63.2207 10.8691 64.3633L10.4101 66.1504C9.95116 67.9375 9.03319 68.8164 7.64647 68.8164ZM15 59.2363L4.84373 59.2363L4.84373 57.5371L15 57.5371L15 59.2363ZM3.13475 58.3867C3.13475 58.9629 2.65623 59.4414 2.08006 59.4414C1.49412 59.4414 1.02537 58.9629 1.02537 58.3867C1.02537 57.8008 1.49412 57.3223 2.08006 57.3223C2.65623 57.3223 3.13475 57.8008 3.13475 58.3867ZM7.64647 55.418C5.90819 55.418 4.66795 53.8652 4.66795 51.6289C4.66795 49.5293 5.91795 47.9863 7.6367 47.9082L7.6367 49.5293C6.66014 49.6465 6.05467 50.4375 6.05467 51.6875C6.05467 52.9277 6.66991 53.748 7.55858 53.748C8.2617 53.748 8.73045 53.2109 9.02342 52.0586L9.40428 50.4863C9.92186 48.4355 10.664 47.6934 12.1582 47.6934C13.9258 47.6934 15.1758 49.3633 15.1758 51.7363C15.1758 53.9629 13.9648 55.5156 12.168 55.6914L12.168 53.9922C13.2226 53.8066 13.789 53.0059 13.789 51.6289C13.789 50.252 13.2031 49.4023 12.2851 49.4023C11.5625 49.4023 11.1719 49.8223 10.8691 50.9648L10.4101 52.752C9.95116 54.5391 9.03319 55.418 7.64647 55.418ZM2.39256 45.3789L2.39256 43.6797L4.84373 43.6797L4.84373 41.707L6.24022 41.707L6.24022 43.6797L12.2754 43.6797C13.2031 43.6797 13.623 43.2891 13.623 42.4199C13.623 42.2246 13.5937 41.834 13.5742 41.7168L15 41.7168C15.0488 41.9219 15.0781 42.3906 15.0781 42.791C15.0781 44.6562 14.3164 45.3789 12.3633 45.3789L6.24022 45.3789L6.24022 46.8926L4.84373 46.8926L4.84373 45.3789L2.39256 45.3789ZM13.7305 36.7363C13.7305 35.1348 12.6074 33.9043 11.1426 33.9043L10.3125 33.9043L10.4785 36.6191C10.5664 37.9863 11.1719 38.7676 12.1289 38.7676C13.0957 38.7676 13.7305 37.957 13.7305 36.7363ZM15.1758 37.1172C15.1758 39.1387 13.9551 40.4961 12.1289 40.4961C10.3906 40.4961 9.29686 39.1582 9.16014 36.8145L8.99412 33.9043L8.14451 33.9043C6.90428 33.9043 6.16209 34.7246 6.16209 36.1309C6.16209 37.4395 6.77733 38.2598 7.77342 38.4746L7.77342 40.1152C6.01561 39.998 4.66795 38.4941 4.66795 36.0918C4.66795 33.709 5.95701 32.2051 7.9785 32.2051L15 32.2051L15 33.8164L13.2519 33.8164L13.2519 33.8555C14.414 34.4609 15.1758 35.75 15.1758 37.1172ZM15 30.0469L4.84373 30.0469L4.84373 28.4453L6.46483 28.4453L6.46483 28.4062C5.37108 27.8398 4.66795 26.7559 4.66795 25.1836C4.66795 22.957 6.1035 21.668 8.40819 21.668L15 21.668L15 23.3672L8.71092 23.3672C7.0703 23.3672 6.17186 24.1387 6.17186 25.7012C6.17186 27.3027 7.30467 28.3477 9.02342 28.3477L15 28.3477L15 30.0469ZM8.17381 11.0625L8.17381 12.7227C7.07029 12.9668 6.16209 13.8262 6.16209 15.3203C6.16209 17.0781 7.61717 18.2695 9.92186 18.2695C12.2851 18.2695 13.6816 17.0586 13.6816 15.3008C13.6816 13.9141 12.9492 13.0059 11.7285 12.7129L11.7285 11.043C13.75 11.3066 15.1758 13.0059 15.1758 15.3105C15.1758 18.123 13.1933 19.998 9.92186 19.998C6.71873 19.998 4.66795 18.1328 4.66795 15.3301C4.66795 12.791 6.34764 11.2773 8.17381 11.0625ZM6.14256 5.4082C6.14256 7 7.36326 8.11328 9.05272 8.2207L9.05272 2.70312C7.3535 2.74219 6.14256 3.80664 6.14256 5.4082ZM12.0898 2.74219L12.0898 1.07226C13.8672 1.36523 15.1758 3.08398 15.1758 5.30078C15.1758 8.21094 13.1543 9.97851 9.96092 9.97851C6.80662 9.97852 4.66795 8.18164 4.66795 5.37891C4.66795 2.63477 6.66014 0.945312 9.73631 0.945312L10.3808 0.945312L10.3808 8.23047L10.4785 8.23047C12.4219 8.23047 13.7012 7.08789 13.7012 5.26172C13.7012 3.97266 13.0469 3.02539 12.0898 2.74219Z" fill="#101010"/>
</svg>
