<svg width="35" height="40" viewBox="0 0 35 40" fill="none" xmlns="http://www.w3.org/2000/svg">
<path d="M0.832031 0V35C0.832031 36.3261 1.35882 37.5979 2.2965 38.5355C3.23418 39.4732 4.50595 40 5.83203 40H29.1654C30.4914 40 31.7632 39.4732 32.7009 38.5355C33.6386 37.5979 34.1654 36.3261 34.1654 35V0H0.832031ZM30.832 3.33333V28.3333H4.16536V3.33333H30.832ZM29.1654 36.6667H5.83203C5.39 36.6667 4.96608 36.4911 4.65352 36.1785C4.34096 35.866 4.16536 35.442 4.16536 35V31.6667H15.832V35H19.1654V31.6667H30.832V35C30.832 35.442 30.6564 35.866 30.3439 36.1785C30.0313 36.4911 29.6074 36.6667 29.1654 36.6667Z" fill="#101010"/>
</svg>
