<svg width="62" height="61" viewBox="0 0 62 61" fill="none" xmlns="http://www.w3.org/2000/svg">
<rect x="0.5" width="61" height="61" rx="30.5" fill="#FFD01A"/>
<path d="M48.0314 41.3131C48.0314 41.9281 47.8948 42.5602 47.6043 43.1752C47.3139 43.7902 46.9381 44.371 46.4427 44.9177C45.6056 45.8402 44.6831 46.5064 43.641 46.9335C42.616 47.3606 41.5056 47.5827 40.3098 47.5827C38.5673 47.5827 36.7052 47.1727 34.7406 46.3356C32.776 45.4985 30.8114 44.371 28.8639 42.9531C26.8993 41.5181 25.0373 39.9293 23.2606 38.1698C21.501 36.3931 19.9123 34.531 18.4943 32.5835C17.0935 30.636 15.966 28.6885 15.146 26.7581C14.326 24.8106 13.916 22.9485 13.916 21.1718C13.916 20.0102 14.121 18.8998 14.531 17.8748C14.941 16.8327 15.5902 15.876 16.4956 15.0218C17.5889 13.9456 18.7848 13.416 20.0489 13.416C20.5273 13.416 21.0056 13.5185 21.4327 13.7235C21.8768 13.9285 22.2698 14.236 22.5773 14.6802L26.5406 20.2664C26.8481 20.6935 27.0702 21.0864 27.2239 21.4623C27.3777 21.821 27.4631 22.1798 27.4631 22.5043C27.4631 22.9143 27.3435 23.3243 27.1043 23.7173C26.8823 24.1102 26.5577 24.5202 26.1477 24.9302L24.8493 26.2798C24.6614 26.4677 24.576 26.6898 24.576 26.9631C24.576 27.0998 24.5931 27.2193 24.6273 27.356C24.6785 27.4927 24.7298 27.5952 24.7639 27.6977C25.0714 28.2614 25.601 28.996 26.3527 29.8843C27.1214 30.7727 27.9414 31.6781 28.8298 32.5835C29.7523 33.4889 30.6406 34.326 31.546 35.0948C32.4343 35.8464 33.1689 36.3589 33.7498 36.6664C33.8352 36.7006 33.9377 36.7518 34.0573 36.8031C34.1939 36.8543 34.3306 36.8714 34.4843 36.8714C34.7748 36.8714 34.9968 36.7689 35.1848 36.581L36.4831 35.2998C36.9102 34.8727 37.3202 34.5481 37.7131 34.3431C38.106 34.1039 38.4989 33.9843 38.926 33.9843C39.2506 33.9843 39.5923 34.0527 39.9681 34.2064C40.3439 34.3602 40.7368 34.5823 41.1639 34.8727L46.8185 38.8873C47.2627 39.1948 47.5702 39.5535 47.7581 39.9806C47.9289 40.4077 48.0314 40.8348 48.0314 41.3131Z" stroke="#333333" stroke-width="2" stroke-miterlimit="10"/>
</svg>
