<svg width="26" height="27" viewBox="0 0 26 27" fill="none" xmlns="http://www.w3.org/2000/svg">
<path d="M14.1903 13.4734L1.17832 0.791795C1.00726 1.04476 0.897232 1.40908 0.897232 1.8927V25.1073C0.897232 25.5889 1.00635 25.9522 1.17619 26.205L14.1903 13.5214V13.4734Z" stroke="black" stroke-width="0.5"/>
<path d="M19.0012 9.39463L14.8152 13.476V13.5242L18.998 17.6074L24.1634 14.747C24.1635 14.7469 24.1636 14.7469 24.1637 14.7468C24.8592 14.3607 25.131 13.8966 25.131 13.5007C25.131 13.1051 24.8594 12.6424 24.1642 12.2588L24.1635 12.2584L19.0012 9.39463Z" stroke="black" stroke-width="0.5"/>
<mask id="path-3-inside-1_1_40992" fill="white">
<path d="M19.0497 17.9316L14.5023 13.4979L1.08203 26.584C1.58132 27.0957 2.39553 27.1574 3.32143 26.6456L19.0497 17.9316Z"/>
</mask>
<path d="M14.5023 13.4979L14.0623 13.0571L14.5023 12.6281L14.9423 13.0571L14.5023 13.4979ZM1.08203 26.584L0.63106 27.0138L0.201111 26.5731L0.642036 26.1432L1.08203 26.584ZM3.32143 26.6456L3.62777 27.1858L3.62721 27.1861L3.32143 26.6456ZM18.6098 18.3725L14.0623 13.9387L14.9423 13.0571L19.4897 17.4908L18.6098 18.3725ZM14.9423 13.9387L1.52203 27.0248L0.642036 26.1432L14.0623 13.0571L14.9423 13.9387ZM1.533 26.1541C1.76262 26.3895 2.23405 26.5372 3.01566 26.1052L3.62721 27.1861C2.557 27.7776 1.40002 27.8019 0.63106 27.0138L1.533 26.1541ZM3.01509 26.1055L18.7434 17.3915L19.3561 18.4718L3.62777 27.1858L3.01509 26.1055Z" fill="black" mask="url(#path-3-inside-1_1_40992)"/>
<path d="M14.5023 13.0632L18.5332 9.13303L3.16974 0.621183C3.16952 0.621063 3.1693 0.620941 3.16908 0.62082C2.48407 0.246292 1.93473 0.239436 1.55597 0.444344L14.5023 13.0632Z" stroke="black" stroke-width="0.5"/>
</svg>
