<svg width="32" height="32" viewBox="0 0 32 32" fill="none" xmlns="http://www.w3.org/2000/svg">
<path d="M16 2.66602C8.65333 2.66602 2.66666 8.65268 2.66666 15.9993C2.66666 23.346 8.65333 29.3327 16 29.3327C23.3467 29.3327 29.3333 23.346 29.3333 15.9993C29.3333 8.65268 23.3467 2.66602 16 2.66602ZM15 10.666C15 10.1193 15.4533 9.66602 16 9.66602C16.5467 9.66602 17 10.1193 17 10.666V17.3327C17 17.8793 16.5467 18.3327 16 18.3327C15.4533 18.3327 15 17.8793 15 17.3327V10.666ZM17.2267 21.8393C17.16 22.0127 17.0667 22.146 16.9467 22.2793C16.8133 22.3993 16.6667 22.4927 16.5067 22.5593C16.3467 22.626 16.1733 22.666 16 22.666C15.8267 22.666 15.6533 22.626 15.4933 22.5593C15.3333 22.4927 15.1867 22.3993 15.0533 22.2793C14.9333 22.146 14.84 22.0127 14.7733 21.8393C14.7067 21.6793 14.6667 21.506 14.6667 21.3327C14.6667 21.1593 14.7067 20.986 14.7733 20.826C14.84 20.666 14.9333 20.5193 15.0533 20.386C15.1867 20.266 15.3333 20.1727 15.4933 20.106C15.8133 19.9727 16.1867 19.9727 16.5067 20.106C16.6667 20.1727 16.8133 20.266 16.9467 20.386C17.0667 20.5193 17.16 20.666 17.2267 20.826C17.2933 20.986 17.3333 21.1593 17.3333 21.3327C17.3333 21.506 17.2933 21.6793 17.2267 21.8393Z" fill="#CC0000"/>
</svg>
