<svg width="41" height="40" viewBox="0 0 41 40" fill="none" xmlns="http://www.w3.org/2000/svg">
<path d="M22.583 20.9669V24.2669C22.583 25.4169 21.6497 26.3503 20.4997 26.3503C19.3497 26.3503 18.4163 25.4169 18.4163 24.2669V20.9669C17.8163 20.6003 17.3497 20.0669 17.0163 19.4336H5.49967C4.58301 19.4336 3.83301 20.1836 3.83301 21.1003V26.9836C3.83301 32.3336 8.16634 36.6669 13.5163 36.6669H27.4663C32.833 36.6669 37.1663 32.3336 37.1663 26.9836V21.1003C37.1663 20.1836 36.4163 19.4336 35.4997 19.4336H23.983C23.6497 20.0669 23.183 20.6003 22.583 20.9669Z" fill="#039A00"/>
<path d="M27.4801 0H13.5134C8.16341 0 3.83008 4.33333 3.83008 9.68333V11.9333C3.83008 12.85 4.58008 13.6 5.49674 13.6H16.6134C16.9967 11.4 19.1801 9.83333 21.5634 10.4667C22.8967 10.8167 23.9801 11.9 24.3301 13.2333C24.3634 13.35 24.3634 13.4833 24.3801 13.6H35.4967C36.4134 13.6 37.1634 12.85 37.1634 11.9333V9.68333C37.1634 4.33333 32.8301 0 27.4801 0Z" fill="#039A00"/>
</svg>
