<svg width="33" height="32" viewBox="0 0 33 32" fill="none" xmlns="http://www.w3.org/2000/svg">
<path d="M29.2467 14.3207L27.4333 12.2141C27.0867 11.8141 26.8067 11.0674 26.8067 10.5341V8.2674C26.8067 6.85406 25.6467 5.69406 24.2333 5.69406H21.9667C21.4467 5.69406 20.6867 5.41406 20.2867 5.0674L18.18 3.25406C17.26 2.4674 15.7533 2.4674 14.82 3.25406L12.7267 5.08073C12.3267 5.41406 11.5667 5.69406 11.0467 5.69406H8.74001C7.32667 5.69406 6.16667 6.85406 6.16667 8.2674V10.5474C6.16667 11.0674 5.88667 11.8141 5.55334 12.2141L3.75334 14.3341C2.98001 15.2541 2.98001 16.7474 3.75334 17.6674L5.55334 19.7874C5.88667 20.1874 6.16667 20.9341 6.16667 21.4541V23.7341C6.16667 25.1474 7.32667 26.3074 8.74001 26.3074H11.0467C11.5667 26.3074 12.3267 26.5874 12.7267 26.9341L14.8333 28.7474C15.7533 29.5341 17.26 29.5341 18.1933 28.7474L20.3 26.9341C20.7 26.5874 21.4467 26.3074 21.98 26.3074H24.2467C25.66 26.3074 26.82 25.1474 26.82 23.7341V21.4674C26.82 20.9474 27.1 20.1874 27.4467 19.7874L29.26 17.6807C30.0333 16.7607 30.0333 15.2407 29.2467 14.3207ZM22.0467 13.4807L15.6067 19.9207C15.42 20.1074 15.1667 20.2141 14.9 20.2141C14.6333 20.2141 14.38 20.1074 14.1933 19.9207L10.9667 16.6941C10.58 16.3074 10.58 15.6674 10.9667 15.2807C11.3533 14.8941 11.9933 14.8941 12.38 15.2807L14.9 17.8007L20.6333 12.0674C21.02 11.6807 21.66 11.6807 22.0467 12.0674C22.4333 12.4541 22.4333 13.0941 22.0467 13.4807Z" fill="#008716"/>
</svg>
