<svg width="41" height="40" viewBox="0 0 41 40" fill="none" xmlns="http://www.w3.org/2000/svg">
<path d="M25.2503 6.58268V12.916H22.7503V6.58268C22.7503 6.13268 22.3503 5.91602 22.0837 5.91602C22.0003 5.91602 21.917 5.93268 21.8337 5.96602L8.61699 10.9493C7.73366 11.2827 7.16699 12.116 7.16699 13.066V14.1827C5.65033 15.316 4.66699 17.1327 4.66699 19.1827V13.066C4.66699 11.0827 5.88366 9.31602 7.73366 8.61602L20.967 3.61602C21.3337 3.48268 21.717 3.41602 22.0837 3.41602C23.7503 3.41602 25.2503 4.76602 25.2503 6.58268Z" fill="#333333"/>
<path d="M36.3338 24.1673V25.834C36.3338 26.284 35.9838 26.6506 35.5171 26.6673H33.0838C32.2005 26.6673 31.4005 26.0173 31.3338 25.1507C31.2838 24.634 31.4838 24.1507 31.8171 23.8173C32.1171 23.5007 32.5338 23.334 32.9838 23.334H35.5005C35.9838 23.3507 36.3338 23.7173 36.3338 24.1673Z" fill="#333333"/>
<path d="M32.967 21.5827H34.667C35.5837 21.5827 36.3337 20.8327 36.3337 19.916V19.1827C36.3337 15.7327 33.517 12.916 30.067 12.916H10.9337C9.51699 12.916 8.21699 13.3827 7.16699 14.1827C5.65033 15.316 4.66699 17.1327 4.66699 19.1827V30.3993C4.66699 33.8493 7.48366 36.666 10.9337 36.666H30.067C33.517 36.666 36.3337 33.8493 36.3337 30.3993V30.0827C36.3337 29.166 35.5837 28.416 34.667 28.416H33.217C31.617 28.416 30.0837 27.4327 29.667 25.8827C29.317 24.616 29.7337 23.3993 30.567 22.5827C31.1837 21.9493 32.0337 21.5827 32.967 21.5827ZM23.8337 21.2493H12.167C11.4837 21.2493 10.917 20.6827 10.917 19.9993C10.917 19.316 11.4837 18.7493 12.167 18.7493H23.8337C24.517 18.7493 25.0837 19.316 25.0837 19.9993C25.0837 20.6827 24.517 21.2493 23.8337 21.2493Z" fill="#333333"/>
</svg>
