<svg width="20" height="21" viewBox="0 0 20 21" fill="none" xmlns="http://www.w3.org/2000/svg">
<path d="M10.0003 2.16699C5.40866 2.16699 1.66699 5.90866 1.66699 10.5003C1.66699 15.092 5.40866 18.8337 10.0003 18.8337C14.592 18.8337 18.3337 15.092 18.3337 10.5003C18.3337 5.90866 14.592 2.16699 10.0003 2.16699ZM13.9837 8.58366L9.25866 13.3087C9.14199 13.4253 8.98366 13.492 8.81699 13.492C8.65033 13.492 8.49199 13.4253 8.37533 13.3087L6.01699 10.9503C5.77533 10.7087 5.77533 10.3087 6.01699 10.067C6.25866 9.82533 6.65866 9.82533 6.90033 10.067L8.81699 11.9837L13.1003 7.70033C13.342 7.45866 13.742 7.45866 13.9837 7.70033C14.2253 7.94199 14.2253 8.33366 13.9837 8.58366Z" fill="#0028FB"/>
</svg>
