<svg width="48" height="48" viewBox="0 0 48 48" fill="none" xmlns="http://www.w3.org/2000/svg">
<rect width="48" height="48" rx="24" fill="#101010"/>
<path d="M30.8105 18.2505H32.1705C31.9805 17.9805 31.7805 17.7305 31.5705 17.4805L30.8105 18.2505Z" fill="#FFD01A"/>
<path d="M30.52 16.4203C30.27 16.2103 30.02 16.0103 29.75 15.8203V17.1803L30.52 16.4203Z" fill="#FFD01A"/>
<path d="M31.5795 17.4804L34.5295 14.5304C34.8195 14.2404 34.8195 13.7604 34.5295 13.4704C34.2395 13.1804 33.7595 13.1804 33.4695 13.4704L30.5195 16.4204C30.8995 16.7504 31.2495 17.1104 31.5795 17.4804Z" fill="#FFD01A"/>
<path d="M29.7498 15C29.7498 14.59 29.4098 14.25 28.9998 14.25C28.5998 14.25 28.2798 14.57 28.2598 14.96C28.7798 15.21 29.2798 15.49 29.7498 15.82V15Z" fill="#FFD01A"/>
<path d="M33.7499 19C33.7499 18.59 33.4099 18.25 32.9999 18.25H32.1699C32.4999 18.72 32.7899 19.22 33.0299 19.74C33.4299 19.72 33.7499 19.4 33.7499 19Z" fill="#FFD01A"/>
<path d="M24.75 26.7498H25.05C25.44 26.7498 25.75 26.3998 25.75 25.9698C25.75 25.4298 25.6 25.3498 25.26 25.2298L24.75 25.0498V26.7498Z" fill="#FFD01A"/>
<path d="M33.04 19.74C33.03 19.74 33.02 19.75 33 19.75H29C28.9 19.75 28.81 19.73 28.71 19.69C28.53 19.61 28.38 19.47 28.3 19.28C28.27 19.19 28.25 19.1 28.25 19V15C28.25 14.99 28.26 14.98 28.26 14.96C26.96 14.35 25.52 14 24 14C18.48 14 14 18.48 14 24C14 29.52 18.48 34 24 34C29.52 34 34 29.52 34 24C34 22.48 33.65 21.04 33.04 19.74ZM25.75 23.82C26.39 24.04 27.25 24.51 27.25 25.98C27.25 27.23 26.26 28.26 25.05 28.26H24.75V28.51C24.75 28.92 24.41 29.26 24 29.26C23.59 29.26 23.25 28.92 23.25 28.51V28.26H23.17C21.84 28.26 20.75 27.14 20.75 25.76C20.75 25.34 21.09 25 21.5 25C21.91 25 22.25 25.34 22.25 25.75C22.25 26.3 22.66 26.75 23.17 26.75H23.25V24.53L22.25 24.18C21.61 23.96 20.75 23.49 20.75 22.02C20.75 20.77 21.74 19.74 22.95 19.74H23.25V19.5C23.25 19.09 23.59 18.75 24 18.75C24.41 18.75 24.75 19.09 24.75 19.5V19.75H24.83C26.16 19.75 27.25 20.87 27.25 22.25C27.25 22.66 26.91 23 26.5 23C26.09 23 25.75 22.66 25.75 22.25C25.75 21.7 25.34 21.25 24.83 21.25H24.75V23.47L25.75 23.82Z" fill="#FFD01A"/>
<path d="M22.25 22.03C22.25 22.57 22.4 22.65 22.74 22.77L23.25 22.95V21.25H22.95C22.57 21.25 22.25 21.6 22.25 22.03Z" fill="#FFD01A"/>
</svg>
