<svg width="20" height="21" viewBox="0 0 20 21" fill="none" xmlns="http://www.w3.org/2000/svg">
<path d="M12.6827 5.95801H4.81602C4.58268 5.95801 4.36602 5.96634 4.16602 5.97467C2.19102 6.09134 1.66602 6.81634 1.66602 9.06634V9.54967C1.66602 10.008 2.04102 10.383 2.49935 10.383H14.9993C15.4577 10.383 15.8327 10.008 15.8327 9.54967V9.06634C15.8327 6.58301 15.1993 5.95801 12.6827 5.95801Z" fill="#101010"/>
<path d="M2.49935 11.6338C2.04102 11.6338 1.66602 12.0088 1.66602 12.4671V14.8921C1.66602 17.3755 2.29935 18.0005 4.81602 18.0005H12.6827C15.1577 18.0005 15.8077 17.4005 15.8327 15.0255V12.4671C15.8327 12.0088 15.4577 11.6338 14.9993 11.6338H2.49935ZM5.79935 15.9671H4.37435C4.03268 15.9671 3.74935 15.6838 3.74935 15.3421C3.74935 15.0005 4.03268 14.7171 4.37435 14.7171H5.80768C6.14935 14.7171 6.43268 15.0005 6.43268 15.3421C6.43268 15.6838 6.14935 15.9671 5.79935 15.9671ZM10.4577 15.9671H7.59102C7.24935 15.9671 6.96602 15.6838 6.96602 15.3421C6.96602 15.0005 7.24935 14.7171 7.59102 14.7171H10.4577C10.7993 14.7171 11.0827 15.0005 11.0827 15.3421C11.0827 15.6838 10.8077 15.9671 10.4577 15.9671Z" fill="#101010"/>
<path d="M18.3333 11.6083V7.24167C18.3333 4.63333 16.8417 3.5 14.5917 3.5H7.15001C6.51668 3.5 5.95001 3.59167 5.45001 3.78333C5.05834 3.925 4.70834 4.13333 4.42501 4.40833C4.27501 4.55 4.39168 4.78333 4.60834 4.78333H13.6667C15.5417 4.78333 17.0583 6.3 17.0583 8.175V14.15C17.0583 14.3583 17.2833 14.475 17.4333 14.325C18.0083 13.7167 18.3333 12.825 18.3333 11.6083Z" fill="#101010"/>
</svg>
