<svg width="46" height="46" viewBox="0 0 46 46" fill="none" xmlns="http://www.w3.org/2000/svg">
<rect width="46" height="46" rx="5" fill="#333333" fill-opacity="0.1"/>
<path d="M29.4698 27.83L29.8598 30.99C29.9598 31.82 29.0698 32.4 28.3598 31.97L24.1698 29.48C23.7098 29.48 23.2599 29.45 22.8199 29.39C23.5599 28.52 23.9998 27.42 23.9998 26.23C23.9998 23.39 21.5398 21.09 18.4998 21.09C17.3398 21.09 16.2699 21.42 15.3799 22C15.3499 21.75 15.3398 21.5 15.3398 21.24C15.3398 16.69 19.2898 13 24.1698 13C29.0498 13 32.9998 16.69 32.9998 21.24C32.9998 23.94 31.6098 26.33 29.4698 27.83Z" stroke="#333333" stroke-width="1.5" stroke-linecap="round" stroke-linejoin="round"/>
<path d="M24 26.2298C24 27.4198 23.56 28.5198 22.82 29.3898C21.83 30.5898 20.26 31.3598 18.5 31.3598L15.89 32.9098C15.45 33.1798 14.89 32.8098 14.95 32.2998L15.2 30.3298C13.86 29.3998 13 27.9098 13 26.2298C13 24.4698 13.94 22.9198 15.38 21.9998C16.27 21.4198 17.34 21.0898 18.5 21.0898C21.54 21.0898 24 23.3898 24 26.2298Z" stroke="#333333" stroke-width="1.5" stroke-linecap="round" stroke-linejoin="round"/>
</svg>
