<svg width="40" height="40" viewBox="0 0 40 40" fill="none" xmlns="http://www.w3.org/2000/svg">
<path d="M28.3327 36.667H11.666C10.9827 36.667 10.416 36.1003 10.416 35.417C10.416 34.7337 10.9827 34.167 11.666 34.167H28.3327C29.016 34.167 29.5827 34.7337 29.5827 35.417C29.5827 36.1003 29.016 36.667 28.3327 36.667Z" fill="#FFD01A"/>
<path d="M33.917 9.20039L27.2504 13.9671C26.367 14.6004 25.1004 14.2171 24.717 13.2004L21.567 4.80039C21.0337 3.35039 18.9837 3.35039 18.4504 4.80039L15.2837 13.1837C14.9004 14.2171 13.6504 14.6004 12.767 13.9504L6.10037 9.18372C4.76703 8.25039 3.00037 9.56706 3.55037 11.1171L10.4837 30.5337C10.717 31.2004 11.3504 31.6337 12.0504 31.6337H27.9337C28.6337 31.6337 29.267 31.1837 29.5004 30.5337L36.4337 11.1171C37.0004 9.56706 35.2337 8.25039 33.917 9.20039ZM24.167 24.5837H15.8337C15.1504 24.5837 14.5837 24.0171 14.5837 23.3337C14.5837 22.6504 15.1504 22.0837 15.8337 22.0837H24.167C24.8504 22.0837 25.417 22.6504 25.417 23.3337C25.417 24.0171 24.8504 24.5837 24.167 24.5837Z" fill="#FFD01A"/>
</svg>
