<svg width="30" height="30" viewBox="0 0 30 30" fill="none" xmlns="http://www.w3.org/2000/svg">
<rect width="30" height="30" rx="15" fill="#FFD01A"/>
<path d="M22.7891 19.9453C22.7891 20.2266 22.7266 20.5156 22.5937 20.7969C22.4609 21.0781 22.2891 21.3437 22.0625 21.5937C21.6797 22.0156 21.2578 22.3203 20.7812 22.5156C20.3125 22.7109 19.8047 22.8125 19.2578 22.8125C18.4609 22.8125 17.6094 22.625 16.7109 22.2422C15.8125 21.8594 14.9141 21.3437 14.0234 20.6953C13.125 20.0391 12.2734 19.3125 11.4609 18.5078C10.6562 17.6953 9.92969 16.8437 9.28125 15.9531C8.64062 15.0625 8.125 14.1719 7.75 13.2891C7.375 12.3984 7.1875 11.5469 7.1875 10.7344C7.1875 10.2031 7.28125 9.69531 7.46875 9.22656C7.65625 8.75 7.95313 8.3125 8.36719 7.92187C8.86719 7.42969 9.41406 7.1875 9.99219 7.1875C10.2109 7.1875 10.4297 7.23438 10.625 7.32813C10.8281 7.42188 11.0078 7.5625 11.1484 7.76562L12.9609 10.3203C13.1016 10.5156 13.2031 10.6953 13.2734 10.8672C13.3437 11.0312 13.3828 11.1953 13.3828 11.3437C13.3828 11.5312 13.3281 11.7187 13.2188 11.8984C13.1172 12.0781 12.9687 12.2656 12.7812 12.4531L12.1875 13.0703C12.1016 13.1562 12.0625 13.2578 12.0625 13.3828C12.0625 13.4453 12.0703 13.5 12.0859 13.5625C12.1094 13.625 12.1328 13.6719 12.1484 13.7187C12.2891 13.9766 12.5312 14.3125 12.875 14.7187C13.2266 15.125 13.6016 15.5391 14.0078 15.9531C14.4297 16.3672 14.8359 16.75 15.25 17.1016C15.6562 17.4453 15.9922 17.6797 16.2578 17.8203C16.2969 17.8359 16.3437 17.8594 16.3984 17.8828C16.4609 17.9062 16.5234 17.9141 16.5937 17.9141C16.7266 17.9141 16.8281 17.8672 16.9141 17.7812L17.5078 17.1953C17.7031 17 17.8906 16.8516 18.0703 16.7578C18.25 16.6484 18.4297 16.5937 18.625 16.5937C18.7734 16.5937 18.9297 16.625 19.1016 16.6953C19.2734 16.7656 19.4531 16.8672 19.6484 17L22.2344 18.8359C22.4375 18.9766 22.5781 19.1406 22.6641 19.3359C22.7422 19.5312 22.7891 19.7266 22.7891 19.9453Z" stroke="#1B1B1B" stroke-width="1.5" stroke-miterlimit="10"/>
</svg>
