<svg width="53" height="53" viewBox="0 0 53 53" fill="none" xmlns="http://www.w3.org/2000/svg">
<g clip-path="url(#clip0_1_44697)">
<path d="M42.4825 17.3867C42.8852 17.2043 43.1989 16.8695 43.3546 16.4558C43.5104 16.0421 43.4955 15.5835 43.3131 15.1809C43.1307 14.7782 42.7959 14.4645 42.3822 14.3087C41.9686 14.1529 41.5099 14.1679 41.1073 14.3502L38.9818 15.3129L36.1068 12.0756C35.0513 10.8807 33.6729 10.0162 32.1376 9.58616C30.6022 9.15615 28.9754 9.17893 27.4527 9.65177C26.2559 8.54192 24.7586 7.80939 23.1478 7.54576C21.537 7.28212 19.8843 7.49905 18.3961 8.16945L18.0409 8.33035C16.5554 9.00671 15.3022 10.1059 14.4379 11.4905C13.5737 12.875 13.1366 14.4836 13.1814 16.1152C11.8226 16.9479 10.7332 18.1554 10.0442 19.5924C9.35519 21.0295 9.09589 22.6349 9.29746 24.2158L9.83203 28.5148L7.70652 29.4775C7.30387 29.6598 6.99015 29.9947 6.83437 30.4083C6.6786 30.822 6.69354 31.2806 6.87591 31.6833C7.05827 32.0859 7.39312 32.3997 7.80679 32.5554C8.22046 32.7112 8.67907 32.6963 9.08172 32.5139L10.2675 31.9769L10.7634 35.9604C10.4435 36.9045 10.3418 37.9088 10.4658 38.8979C10.5898 39.887 10.9363 40.8351 11.4794 41.671C12.0224 42.5069 12.7478 43.2089 13.6011 43.7242C14.4544 44.2395 15.4134 44.5547 16.406 44.6461L17.476 47.0085C18.023 48.2164 19.0276 49.1576 20.2686 49.6249C21.5096 50.0922 22.8854 50.0474 24.0934 49.5003C25.3014 48.9532 26.2425 47.9487 26.7099 46.7077C27.1772 45.4667 27.1323 44.0908 26.5853 42.8829L25.8977 41.3646L38.0434 35.8638L38.731 37.382C39.2781 38.59 40.2826 39.5312 41.5236 39.9985C42.7647 40.4658 44.1405 40.421 45.3484 39.8739C46.5564 39.3268 47.4976 38.3223 47.9649 37.0812C48.4322 35.8402 48.3874 34.4644 47.8403 33.2564L46.7704 30.8941C47.3558 30.0879 47.751 29.1595 47.9263 28.1786C48.1016 27.1978 48.0524 26.19 47.7825 25.2309C47.5125 24.2718 47.0288 23.3863 46.3677 22.6409C45.7066 21.8955 44.8852 21.3095 43.9652 20.927L41.2968 17.9237L42.4825 17.3867ZM19.4161 11.3668L19.7713 11.2059C20.4103 10.9181 21.1028 10.7682 21.8036 10.766C22.5044 10.7639 23.1978 10.9096 23.8385 11.1935L16.7241 14.4156C16.933 13.7466 17.2808 13.1292 17.7447 12.6039C18.2085 12.0785 18.7781 11.6569 19.4161 11.3668ZM12.6058 23.8006C12.4701 22.7416 12.6784 21.6671 13.2001 20.7357C13.7219 19.8042 14.5293 19.0652 15.5032 18.6278L27.8098 13.0541C28.7813 12.6102 29.8698 12.4906 30.9145 12.713C31.9592 12.9354 32.9046 13.488 33.6111 14.2891L39.3296 20.7266C39.0871 20.7932 38.8487 20.8737 38.6154 20.9677L14.324 31.9693C14.0995 32.0826 13.8817 32.2088 13.6717 32.3471L12.6058 23.8006ZM23.5488 44.2581C23.7312 44.6607 23.7461 45.1193 23.5904 45.533C23.4346 45.9467 23.1209 46.2815 22.7182 46.4639C22.3155 46.6462 21.8569 46.6612 21.4433 46.5054C21.0296 46.3496 20.6948 46.0359 20.5124 45.6333L19.8248 44.115L22.8612 42.7398L23.5488 44.2581ZM44.8039 34.6316C44.9862 35.0343 45.0012 35.4929 44.8454 35.9066C44.6896 36.3202 44.3759 36.6551 43.9732 36.8375C43.5706 37.0198 43.112 37.0348 42.6983 36.879C42.2846 36.7232 41.9498 36.4095 41.7674 36.0068L41.0798 34.4886L44.1163 33.1134L44.8039 34.6316ZM42.7411 30.077L18.4496 41.0786C17.6443 41.4433 16.7271 41.4732 15.8997 41.1617C15.0724 40.8501 14.4027 40.2227 14.0379 39.4174C13.6732 38.6121 13.6433 37.6949 13.9549 36.8675C14.2664 36.0402 14.8939 35.3705 15.6992 35.0057L16.3868 36.524C16.5691 36.9266 16.904 37.2403 17.3177 37.3961C17.7313 37.5519 18.1899 37.5369 18.5926 37.3546C18.9953 37.1722 19.309 36.8374 19.4647 36.4237C19.6205 36.01 19.6056 35.5514 19.4232 35.1488L18.7356 33.6305L36.9542 25.3793L37.6418 26.8975C37.8242 27.3002 38.159 27.6139 38.5727 27.7697C38.9864 27.9255 39.445 27.9105 39.8476 27.7282C40.2503 27.5458 40.564 27.2109 40.7198 26.7973C40.8756 26.3836 40.8606 25.925 40.6783 25.5223L39.9906 24.0041C40.796 23.6394 41.7132 23.6095 42.5405 23.9211C43.3679 24.2326 44.0376 24.86 44.4023 25.6654C44.767 26.4707 44.7969 27.3879 44.4854 28.2152C44.1738 29.0426 43.5464 29.7123 42.7411 30.077Z" fill="#101010"/>
</g>
<defs>
<clipPath id="clip0_1_44697">
<rect width="40" height="40" fill="white" transform="translate(0 16.502) rotate(-24.3658)"/>
</clipPath>
</defs>
</svg>
