<svg width="51" height="51" viewBox="0 0 51 51" fill="none" xmlns="http://www.w3.org/2000/svg">
<g clip-path="url(#clip0_1_44496)">
<path d="M49.2882 24.6493C48.1591 23.1415 46.5548 22.0582 44.7343 21.5744C45.6216 18.9951 46.2773 16.3418 46.6936 13.6461C46.8296 12.6661 46.7363 11.668 46.421 10.7303C46.1058 9.79259 45.5771 8.94084 44.8768 8.24213C44.1764 7.54341 43.3234 7.01679 42.3849 6.70374C41.4465 6.39069 40.4482 6.29974 39.4686 6.43806C39.2008 6.47418 38.4061 6.59106 37.3202 6.80143C37.9926 5.31278 38.3111 3.68866 38.2509 2.05631C38.242 1.77725 38.1782 1.50268 38.0632 1.24828C37.9481 0.993881 37.7841 0.764632 37.5805 0.573622C37.3768 0.382612 37.1376 0.233581 36.8763 0.13504C36.6151 0.0364992 36.337 -0.00962314 36.0579 -0.000693254C35.7789 0.00823663 35.5043 0.0720438 35.2499 0.187085C34.9955 0.302127 34.7663 0.466149 34.5753 0.669788C34.3843 0.873427 34.2352 1.11269 34.1367 1.37393C34.0381 1.63516 33.992 1.91325 34.0009 2.19231C34.0372 3.21882 33.8266 4.23905 33.3868 5.16731C33.0795 4.33782 32.6411 3.56299 32.0884 2.87231C31.1491 1.80321 29.9566 0.98669 28.6202 0.497414C27.2838 0.00813719 25.8461 -0.138279 24.4384 0.0715568C22.895 0.195447 21.4198 0.760474 20.1884 1.69931C18.7965 0.652093 17.1124 0.0652458 15.3711 0.0205568C13.1615 -0.1936 10.957 0.476517 9.24044 1.88418C8.36883 2.66017 7.6651 3.60619 7.17249 4.66412C6.67989 5.72205 6.40882 6.86953 6.37594 8.03606C6.31763 9.90397 6.86148 11.7411 7.92719 13.2763C6.63073 14.3879 5.62435 15.7984 4.99496 17.3859C4.36557 18.9734 4.13209 20.6903 4.31469 22.3883C2.63415 23.3248 1.32449 24.808 0.603187 26.5915C-0.118111 28.375 -0.207649 30.3516 0.349443 32.1931C1.80509 37.258 4.5144 41.8742 8.22682 45.6146C11.7883 49.0873 16.572 51.0212 21.5463 50.9993H29.4556C34.4293 51.0216 39.2125 49.0876 42.7729 45.6146C46.4867 41.8748 49.1969 37.2585 50.6525 32.1931C51.0318 30.9167 51.106 29.569 50.8691 28.2586C50.6321 26.9483 50.0906 25.712 49.2882 24.6493ZM40.0593 10.6456C40.3882 10.6012 40.7228 10.6334 41.0372 10.7398C41.3515 10.8462 41.637 11.0238 41.8713 11.2587C42.1056 11.4937 42.2825 11.7796 42.388 12.0942C42.4936 12.4088 42.5249 12.7436 42.4797 13.0723C42.034 15.8628 41.3115 18.602 40.3228 21.2493H34.8807L37.6283 18.5017C38.0154 18.1009 38.2296 17.5641 38.2248 17.007C38.2199 16.4498 37.9964 15.9168 37.6024 15.5228C37.2084 15.1288 36.6755 14.9053 36.1183 14.9005C35.5611 14.8957 35.0243 15.1098 34.6236 15.4969L28.8712 21.2493H25.5796C25.4244 20.1317 25.5309 18.9932 25.8908 17.9238C26.2508 16.8544 26.8542 15.8832 27.6536 15.0868C28.5609 14.1709 32.0396 11.6868 40.0593 10.6456ZM10.6259 8.17843C10.6387 7.59341 10.7706 7.01714 11.0136 6.48481C11.2565 5.95247 11.6055 5.47526 12.0391 5.08231C12.9158 4.43428 14.0049 4.14131 15.0884 4.26206C15.6118 4.24054 16.1338 4.32995 16.6201 4.52442C17.1065 4.71888 17.5462 5.01401 17.9104 5.39043C18.1972 5.7108 18.5483 5.96706 18.9408 6.14246C19.3334 6.31786 19.7585 6.40845 20.1884 6.40831C20.6174 6.40619 21.0411 6.31391 21.4321 6.13745C21.8231 5.961 22.1726 5.70432 22.4579 5.38406C22.7749 5.0488 23.1552 4.77981 23.5769 4.59267C23.9986 4.40554 24.4532 4.304 24.9144 4.29393C25.6169 4.16881 26.3394 4.21979 27.0172 4.44229C27.6951 4.66479 28.3073 5.05189 28.7989 5.56893C29.444 6.3948 29.7807 7.4199 29.7509 8.46743C29.7509 8.60556 29.7509 8.90731 29.7509 8.90731C26.93 9.92311 24.5203 11.8364 22.8914 14.3537C21.5496 12.7652 19.7642 11.6133 17.7639 11.0454C15.7636 10.4776 13.6393 10.5196 11.6629 11.1662C10.9578 10.3339 10.588 9.26865 10.6259 8.17843ZM8.50094 21.2493C8.50094 19.5586 9.17259 17.937 10.3681 16.7415C11.5637 15.546 13.1852 14.8743 14.8759 14.8743C16.5667 14.8743 18.1882 15.546 19.3838 16.7415C20.5793 17.937 21.2509 19.5586 21.2509 21.2493H8.50094ZM46.5724 31.0009C45.3028 35.3724 42.966 39.3595 39.7724 42.6034C37.0112 45.2863 33.3055 46.7754 29.4556 46.7493H21.5463C17.6954 46.7745 13.9887 45.2855 11.2252 42.6034C8.0315 39.3596 5.6947 35.3725 4.42519 31.0009C4.23469 30.3576 4.19774 29.6785 4.31731 29.0182C4.43689 28.358 4.70965 27.735 5.11369 27.1993C5.50573 26.6705 6.0165 26.2412 6.60484 25.9459C7.19319 25.6506 7.84266 25.4976 8.50094 25.4993H42.5009C43.1614 25.4956 43.8134 25.6476 44.4041 25.943C44.9948 26.2384 45.5076 26.6688 45.9009 27.1993C46.3021 27.7365 46.5718 28.3601 46.6884 29.0203C46.805 29.6805 46.7653 30.3589 46.5724 31.0009Z" fill="#101010"/>
</g>
<defs>
<clipPath id="clip0_1_44496">
<rect width="51" height="51" fill="white"/>
</clipPath>
</defs>
</svg>
