<svg width="72" height="72" viewBox="0 0 72 72" fill="none" xmlns="http://www.w3.org/2000/svg">
<g clip-path="url(#clip0_1_44696)">
<path d="M35.7217 35.7233C37.5634 35.2098 39.2114 34.1617 40.4573 32.7115C41.7033 31.2614 42.4913 29.4744 42.7216 27.5764C42.9519 25.6784 42.6143 23.7548 41.7513 22.0487C40.8884 20.3427 39.5389 18.9308 37.8736 17.9917C36.2083 17.0526 34.3018 16.6284 32.3954 16.7727C30.489 16.9171 28.6682 17.6236 27.1632 18.8027C25.6583 19.9819 24.5368 21.5809 23.9407 23.3975C23.3445 25.214 23.3004 27.1666 23.8139 29.0082C24.5025 31.4778 26.1439 33.5726 28.3771 34.8319C30.6102 36.0913 33.2522 36.4119 35.7217 35.7233ZM31.8271 21.7561C32.748 21.4993 33.7242 21.5214 34.6325 21.8195C35.5408 22.1176 36.3403 22.6783 36.9299 23.4308C37.5195 24.1832 37.8727 25.0936 37.9449 26.0468C38.017 27.0001 37.805 27.9533 37.3354 28.7859C36.8658 29.6186 36.1599 30.2934 35.3069 30.7248C34.4538 31.1563 33.492 31.3251 32.543 31.2099C31.5941 31.0948 30.7005 30.7008 29.9755 30.0778C29.2504 29.4548 28.7264 28.6308 28.4696 27.71C28.1253 26.4752 28.2856 25.1543 28.9153 24.0377C29.5449 22.9211 30.5924 22.1004 31.8271 21.7561ZM54.0356 23.484L52.2068 23.3943C51.7809 20.7029 50.791 18.132 49.3018 15.85C47.8127 13.5681 45.858 11.6267 43.5659 10.1532C41.2738 8.67966 38.6962 7.70729 36.002 7.29984C33.3077 6.89238 30.5578 7.05905 27.9325 7.7889C25.2738 8.53136 22.8052 9.83503 20.6928 11.6121C18.5805 13.3891 16.8735 15.5983 15.687 18.0907C14.5005 20.5831 13.862 23.3009 13.8144 26.0609C13.7669 28.8209 14.3114 31.559 15.4114 34.0908C13.2996 35.1273 11.5327 36.7527 10.3239 38.7709C9.48761 40.1701 8.94637 41.7255 8.73342 43.3416C8.52046 44.9576 8.6403 46.6002 9.08556 48.1682L11.7306 57.6542C12.4374 60.17 13.9387 62.3899 16.0106 63.9825C18.0824 65.5751 20.6137 66.4551 23.2266 66.4912L30.4918 66.7234C31.7113 66.7597 32.9293 66.6104 34.104 66.2806C35.1698 65.982 36.1902 65.5405 37.1375 64.9681L49.4826 57.2357C50.5901 56.5743 51.8545 56.2217 53.1444 56.2147L59.2203 56.5276C60.6827 56.479 62.115 56.0991 63.4092 55.4165C64.7035 54.7339 65.8259 53.7664 66.6918 52.5869C67.5578 51.4074 68.1447 50.0468 68.4082 48.6075C68.6718 47.1682 68.6052 45.6878 68.2134 44.278L64.8712 32.2918C64.1944 29.8849 62.7897 27.7463 60.8497 26.169C58.9097 24.5917 56.5294 23.653 54.035 23.4816L54.0356 23.484ZM20.4997 19.2998C21.432 17.6386 22.6832 16.1779 24.1815 15.0014C25.6798 13.825 27.3957 12.956 29.2307 12.4444C31.0656 11.9327 32.9836 11.7884 34.8744 12.0198C36.7653 12.2512 38.5918 12.8538 40.2493 13.7929C43.5944 15.6929 46.0537 18.8374 47.0918 22.5418C48.1299 26.2463 47.6628 30.2108 45.7922 33.5726L39.7639 43.9216C39.4503 44.4652 38.9359 44.8641 38.3314 45.0327C37.7268 45.2013 37.0802 45.1261 36.5305 44.8232L26.0267 39.1216C22.6744 37.2173 20.2117 34.064 19.1762 30.3503C18.1406 26.6366 18.6164 22.664 20.4997 19.2998ZM63.5577 45.5762C63.7557 46.2809 63.7904 47.0214 63.659 47.7415C63.5276 48.4616 63.2337 49.1422 62.7996 49.7315C62.3925 50.2997 61.8653 50.7712 61.2555 51.1125C60.6456 51.4538 59.968 51.6566 59.2709 51.7065L53.3005 51.3942C51.0703 51.3768 48.8784 51.9741 46.9653 53.1206L34.6096 60.851C33.4155 61.5685 32.0399 61.9269 30.6474 61.883L23.3264 61.6665C21.7508 61.6514 20.2226 61.1256 18.9712 60.1681C17.7198 59.2105 16.8128 57.8729 16.3864 56.356L13.7413 46.87C13.4737 45.9305 13.4011 44.9462 13.5279 43.9776C13.6548 43.009 13.9784 42.0765 14.4789 41.2376C15.2622 39.9235 16.4381 38.8884 17.841 38.278C19.4279 40.3423 21.4145 42.0658 23.6821 43.3454L34.2269 49.0682C35.8791 49.9771 37.8216 50.2025 39.638 49.696C41.4543 49.1896 42.9999 47.9916 43.9434 46.3589L49.9898 35.9848C51.3269 33.6024 52.1414 30.9626 52.3791 28.241L53.7447 28.3068C55.2358 28.4146 56.6574 28.9798 57.8154 29.9253C58.9735 30.8708 59.8116 32.1506 60.2155 33.59L63.5577 45.5762Z" fill="#101010"/>
</g>
<defs>
<clipPath id="clip0_1_44696">
<rect width="58" height="58" fill="white" transform="translate(0 15.5781) rotate(-15.5805)"/>
</clipPath>
</defs>
</svg>
