<svg width="18" height="19" viewBox="0 0 18 19" fill="none" xmlns="http://www.w3.org/2000/svg">
<path d="M6.375 11.1875C6.375 12.6275 7.56 13.8125 9 13.8125C10.44 13.8125 11.625 12.6275 11.625 11.1875" stroke="#333333" stroke-miterlimit="10" stroke-linecap="round" stroke-linejoin="round"/>
<path d="M6.60758 2L3.89258 4.7225" stroke="#333333" stroke-miterlimit="10" stroke-linecap="round" stroke-linejoin="round"/>
<path d="M11.3926 2L14.1076 4.7225" stroke="#333333" stroke-miterlimit="10" stroke-linecap="round" stroke-linejoin="round"/>
<path d="M1.5 6.3877C1.5 5.0002 2.2425 4.8877 3.165 4.8877H14.835C15.7575 4.8877 16.5 5.0002 16.5 6.3877C16.5 8.0002 15.7575 7.8877 14.835 7.8877H3.165C2.2425 7.8877 1.5 8.0002 1.5 6.3877Z" stroke="#333333"/>
<path d="M2.625 8L3.6825 14.48C3.9225 15.935 4.5 17 6.645 17H11.1675C13.5 17 13.845 15.98 14.115 14.57L15.375 8" stroke="#333333" stroke-linecap="round"/>
</svg>
