<svg width="52" height="53" viewBox="0 0 52 53" fill="none" xmlns="http://www.w3.org/2000/svg">
<circle cx="26" cy="26.5" r="26" fill="#F1E60D"/>
<g clip-path="url(#clip0_1_44371)">
<path d="M35.7019 22.7949C34.8854 21.893 33.6544 21.369 31.9482 21.1862V20.2599C31.9482 18.5902 31.2413 16.9815 29.9982 15.8602C28.7429 14.7146 27.1097 14.1784 25.4157 14.3368C22.5029 14.6171 20.0532 17.4324 20.0532 20.4793V21.1862C18.3469 21.369 17.116 21.893 16.2994 22.7949C15.1172 24.1112 15.1538 25.8662 15.2879 27.0849L16.141 33.8734C16.3969 36.2499 17.3597 38.6874 22.6004 38.6874H29.401C34.6416 38.6874 35.6044 36.2499 35.8604 33.8855L36.7135 27.0727C36.8475 25.8662 36.8719 24.1112 35.7019 22.7949ZM25.5863 16.0309C26.805 15.9212 27.9629 16.299 28.8647 17.1155C29.7544 17.9199 30.2541 19.0655 30.2541 20.2599V21.113H21.7472V20.4793C21.7472 18.3099 23.5388 16.2259 25.5863 16.0309ZM21.6375 27.9015H21.6254C20.955 27.9015 20.4066 27.353 20.4066 26.6827C20.4066 26.0124 20.955 25.464 21.6254 25.464C22.3079 25.464 22.8563 26.0124 22.8563 26.6827C22.8563 27.353 22.3079 27.9015 21.6375 27.9015ZM30.1688 27.9015H30.1566C29.4863 27.9015 28.9379 27.353 28.9379 26.6827C28.9379 26.0124 29.4863 25.464 30.1566 25.464C30.8391 25.464 31.3875 26.0124 31.3875 26.6827C31.3875 27.353 30.8391 27.9015 30.1688 27.9015Z" fill="#333333"/>
</g>
<defs>
<clipPath id="clip0_1_44371">
<rect width="29.25" height="29.25" fill="white" transform="translate(11.375 11.875)"/>
</clipPath>
</defs>
</svg>
