<svg width="48" height="48" viewBox="0 0 48 48" fill="none" xmlns="http://www.w3.org/2000/svg">
<g clip-path="url(#clip0_1_44495)">
<path d="M46.4016 1.59949C45.6599 0.851514 44.7168 0.335312 43.687 0.113733C42.6572 -0.107846 41.5853 -0.0252417 40.6016 0.351488L6.31163 13.8575C4.07088 14.7436 2.22774 16.4127 1.12432 18.5548C0.0208956 20.6969 -0.267865 23.1666 0.311634 25.5055C1.7657 30.8131 4.57601 35.6509 8.46628 39.5432C12.3565 43.4356 17.1928 46.2486 22.4996 47.7055C24.8409 48.2813 27.3116 47.9889 29.4537 46.8823C31.5959 45.7757 33.2642 43.9301 34.1496 41.6875L47.6656 7.34349C48.0301 6.36596 48.1047 5.30402 47.8804 4.28513C47.6562 3.26624 47.1427 2.33371 46.4016 1.59949ZM23.4936 43.8215C18.8757 42.5541 14.667 40.1071 11.2811 36.7208C7.89514 33.3345 5.44852 29.1255 4.18163 24.5075C3.88948 23.3159 3.97618 22.0629 4.42966 20.9229C4.88314 19.783 5.68082 18.8128 6.71163 18.1475C6.91837 24.2189 9.4223 29.9854 13.7174 34.2816C18.0124 38.5777 23.7783 41.0832 29.8496 41.2915C29.185 42.322 28.2155 43.1195 27.0762 43.573C25.9369 44.0265 24.6846 44.1133 23.4936 43.8215ZM31.5476 37.3675C19.1656 37.1675 10.8376 28.8375 10.6356 16.4535L42.0216 4.09349C42.2837 3.99303 42.5695 3.97169 42.8436 4.03213C43.1177 4.09257 43.368 4.23212 43.5636 4.43349C43.7631 4.62005 43.9037 4.8609 43.968 5.12636C44.0323 5.39182 44.0176 5.6703 43.9256 5.92749L42.6016 9.28949C31.0856 5.32949 24.7176 21.7075 35.7756 26.6255L31.5476 37.3675ZM37.2416 22.9035C35.9872 22.3505 34.9954 21.3336 34.4739 20.0658C33.9524 18.798 33.9416 17.3775 34.4439 16.102C34.9461 14.8264 35.9223 13.7946 37.1682 13.2226C38.414 12.6506 39.8329 12.5829 41.1276 13.0335L37.2416 22.9035Z" fill="#101010"/>
<path d="M22 18C20.9391 18 19.9217 18.4214 19.1716 19.1716C18.4214 19.9217 18 20.9391 18 22C18 23.0609 18.4214 24.0783 19.1716 24.8284C19.9217 25.5786 20.9391 26 22 26C23.0609 26 24.0783 25.5786 24.8284 24.8284C25.5786 24.0783 26 23.0609 26 22C26 20.9391 25.5786 19.9217 24.8284 19.1716C24.0783 18.4214 23.0609 18 22 18Z" fill="#101010"/>
</g>
<defs>
<clipPath id="clip0_1_44495">
<rect width="48" height="48" fill="white"/>
</clipPath>
</defs>
</svg>
