<svg width="67" height="67" viewBox="0 0 67 67" fill="none" xmlns="http://www.w3.org/2000/svg">
<g clip-path="url(#clip0_1_44497)">
<path d="M47.0526 20.5041L41.4283 24.0019L25.2815 14.1448C24.342 13.6133 23.2767 13.3446 22.1975 13.3671C21.1183 13.3895 20.0651 13.7023 19.1486 14.2725L18.8391 14.465C18.1443 14.8958 17.5594 15.4822 17.1305 16.1781C16.7016 16.8739 16.4406 17.66 16.368 18.4742C16.2955 19.2884 16.4134 20.1083 16.7125 20.869C17.0115 21.6297 17.4835 22.3104 18.0911 22.8572L28.3922 32.1091L24.3376 34.6307C23.6682 35.0494 22.9224 35.3313 22.1433 35.4599C21.3643 35.5886 20.5674 35.5614 19.7989 35.3801L15.886 34.4622C14.8873 34.2299 13.8407 34.3218 12.8978 34.7246C11.9549 35.1273 11.1648 35.82 10.6422 36.7021C10.3175 37.2459 10.1076 37.8504 10.0252 38.4784C9.94284 39.1064 9.98978 39.7446 10.1631 40.3538C10.3442 41.0104 10.6561 41.6237 11.0801 42.1568C11.5041 42.69 12.0313 43.132 12.6303 43.4563L18.3633 46.5537C19.9172 47.3907 21.6643 47.8031 23.4285 47.7495C25.1926 47.6958 26.9114 47.178 28.4116 46.2481L34.723 42.323L36.5897 51.6504C36.7565 52.4848 37.123 53.2664 37.6578 53.9282C38.1926 54.59 38.8799 55.1123 39.6607 55.4505C40.4416 55.7886 41.2927 55.9324 42.1413 55.8697C42.9899 55.8069 43.8106 55.5395 44.5332 55.0902C45.437 54.5347 46.1759 53.7479 46.6735 52.8111C47.171 51.8742 47.4092 50.8214 47.3634 49.7617L47.385 34.4485L53.3988 30.7085C54.752 29.867 55.7154 28.5223 56.0772 26.9704C56.439 25.4185 56.1694 23.7864 55.3279 22.4332C54.4863 21.08 53.1417 20.1166 51.5898 19.7548C50.0379 19.393 48.4058 19.6626 47.0526 20.5041ZM20.7769 19.8755C20.6316 19.7446 20.5186 19.5818 20.447 19.3997C20.3754 19.2177 20.3471 19.0216 20.3643 18.8267C20.3815 18.6319 20.4438 18.4437 20.5462 18.2771C20.6486 18.1104 20.7884 17.9699 20.9544 17.8665L21.264 17.674C21.5589 17.487 21.8981 17.3814 22.247 17.3677C22.596 17.3541 22.9424 17.4329 23.251 17.5963L37.622 26.369L31.9331 29.907L20.7769 19.8755ZM51.2834 27.307L44.3257 31.6341C44.0372 31.8137 43.7991 32.0639 43.634 32.3609C43.4688 32.658 43.382 32.9922 43.3816 33.332L43.36 49.874C43.3805 50.2332 43.3038 50.5913 43.138 50.9106C42.9722 51.23 42.7234 51.4987 42.4179 51.6887C42.2451 51.7964 42.0487 51.8605 41.8457 51.8755C41.6426 51.8906 41.439 51.8561 41.2522 51.7751C41.0654 51.6941 40.9011 51.569 40.7733 51.4104C40.6456 51.2519 40.5582 51.0647 40.5188 50.865L38.0816 38.7013C38.0177 38.3842 37.8779 38.0873 37.6743 37.836C37.4707 37.5847 37.2092 37.3864 36.9123 37.2582C36.6153 37.13 36.2918 37.0755 35.9692 37.0996C35.6466 37.1237 35.3347 37.2255 35.0601 37.3964L26.2962 42.8467C25.3971 43.4038 24.3669 43.7137 23.3096 43.745C22.2524 43.7763 21.2056 43.528 20.2751 43.0252L14.5325 39.9313C14.4112 39.8647 14.3042 39.7746 14.2179 39.6664C14.1315 39.5581 14.0675 39.4339 14.0295 39.3007C13.9997 39.2148 13.9883 39.1235 13.9962 39.0329C14.004 38.9422 14.0309 38.8543 14.0751 38.7748C14.1453 38.6539 14.2434 38.5516 14.3613 38.4765C14.5446 38.3642 14.7643 38.3273 14.9742 38.3736L18.8829 39.2848C20.1648 39.587 21.494 39.6319 22.7934 39.4169C24.0929 39.2019 25.3367 38.7312 26.453 38.0321L49.168 23.9056C49.6191 23.6251 50.1631 23.5352 50.6804 23.6558C51.1977 23.7764 51.6459 24.0976 51.9264 24.5486C52.2069 24.9997 52.2968 25.5437 52.1762 26.061C52.0556 26.5783 51.7344 27.0265 51.2834 27.307Z" fill="#101010"/>
</g>
<defs>
<clipPath id="clip0_1_44497">
<rect width="48.0672" height="48.0672" fill="white" transform="translate(0.761719 25.709) rotate(-31.8777)"/>
</clipPath>
</defs>
</svg>
