<svg width="18" height="19" viewBox="0 0 18 19" fill="none" xmlns="http://www.w3.org/2000/svg">
<path d="M13.5 14.645H12.93C12.33 14.645 11.76 14.8775 11.34 15.2975L10.0575 16.565C9.47248 17.1425 8.52001 17.1425 7.93501 16.565L6.6525 15.2975C6.2325 14.8775 5.655 14.645 5.0625 14.645H4.5C3.255 14.645 2.25 13.6475 2.25 12.4175V4.2275C2.25 2.9975 3.255 2 4.5 2H13.5C14.745 2 15.75 2.9975 15.75 4.2275V12.41C15.75 13.64 14.745 14.645 13.5 14.645Z" stroke="#333333" stroke-miterlimit="10" stroke-linecap="round" stroke-linejoin="round"/>
<path d="M9.05182 7.21211C9.02182 7.21211 8.9768 7.21211 8.9393 7.21211C8.1518 7.18211 7.5293 6.54461 7.5293 5.74961C7.5293 4.93961 8.18181 4.28711 8.99181 4.28711C9.80181 4.28711 10.4543 4.94711 10.4543 5.74961C10.4618 6.54461 9.83932 7.18961 9.05182 7.21211Z" stroke="#333333" stroke-linecap="round" stroke-linejoin="round"/>
<path d="M6.93758 9.46973C5.94008 10.1372 5.94008 11.2247 6.93758 11.8922C8.07008 12.6497 9.93008 12.6497 11.0626 11.8922C12.0601 11.2247 12.0601 10.1372 11.0626 9.46973C9.93008 8.71973 8.07758 8.71973 6.93758 9.46973Z" stroke="#333333" stroke-linecap="round" stroke-linejoin="round"/>
</svg>
