<svg width="52" height="52" viewBox="0 0 52 52" fill="none" xmlns="http://www.w3.org/2000/svg">
<circle cx="26" cy="26" r="26" fill="#F1E60D"/>
<path d="M37.7715 30.5205C38.1332 30.5205 38.4173 30.8047 38.4173 31.1663V32.458C38.4173 34.6022 36.6865 36.333 34.5423 36.333C34.5423 34.2018 32.7986 32.458 30.6673 32.458C28.5361 32.458 26.7923 34.2018 26.7923 36.333H24.209C24.209 34.2018 22.4652 32.458 20.334 32.458C18.2027 32.458 16.459 34.2018 16.459 36.333C14.3148 36.333 12.584 34.6022 12.584 32.458V29.8747C12.584 29.1643 13.1652 28.583 13.8757 28.583H26.1465C27.929 28.583 29.3757 27.1363 29.3757 25.3538V18.2497C29.3757 17.5393 29.9569 16.958 30.6673 16.958H31.7523C32.6823 16.958 33.5348 17.4618 33.9998 18.2626L34.8265 19.7093C34.9427 19.9159 34.7877 20.1872 34.5423 20.1872C32.7598 20.1872 31.3132 21.6338 31.3132 23.4163V27.2913C31.3132 29.0738 32.7598 30.5205 34.5423 30.5205H37.7715Z" fill="#101010"/>
<path d="M20.3333 38.9167C21.7601 38.9167 22.9167 37.7601 22.9167 36.3333C22.9167 34.9066 21.7601 33.75 20.3333 33.75C18.9066 33.75 17.75 34.9066 17.75 36.3333C17.75 37.7601 18.9066 38.9167 20.3333 38.9167Z" fill="#101010"/>
<path d="M30.6673 38.9167C32.0941 38.9167 33.2507 37.7601 33.2507 36.3333C33.2507 34.9066 32.0941 33.75 30.6673 33.75C29.2406 33.75 28.084 34.9066 28.084 36.3333C28.084 37.7601 29.2406 38.9167 30.6673 38.9167Z" fill="#101010"/>
<path d="M38.4167 26.6846V28.5833H34.5417C33.8312 28.5833 33.25 28.0021 33.25 27.2917V23.4167C33.25 22.7063 33.8312 22.125 34.5417 22.125H36.2079L38.0808 25.4058C38.3004 25.7933 38.4167 26.2325 38.4167 26.6846Z" fill="#101010"/>
<path d="M26.8937 13.083H17.3483C15.0362 13.083 13.0987 14.7363 12.6724 16.9322H18.317C18.8079 16.9322 19.1954 17.3326 19.1954 17.8234C19.1954 18.3143 18.8079 18.7018 18.317 18.7018H12.582V20.4843H15.9404C16.4312 20.4843 16.8316 20.8847 16.8316 21.3755C16.8316 21.8663 16.4312 22.2538 15.9404 22.2538H12.582V24.0363H13.5766C14.0674 24.0363 14.4679 24.4368 14.4679 24.9276C14.4679 25.4184 14.0674 25.8059 13.5766 25.8059H12.582V26.103C12.582 26.8134 13.1633 27.3947 13.8737 27.3947H25.6924C27.0099 27.3947 28.082 26.3226 28.082 25.0051V14.2713C28.082 13.6126 27.5524 13.083 26.8937 13.083Z" fill="#101010"/>
<path d="M12.6731 16.9326H12.4793H11.2135C10.7227 16.9326 10.3223 17.333 10.3223 17.8239C10.3223 18.3147 10.7227 18.7022 11.2135 18.7022H12.3889H12.5827V17.8497C12.5827 17.5397 12.6214 17.2297 12.6731 16.9326Z" fill="#101010"/>
<path d="M12.3889 20.4844H11.2135C10.7227 20.4844 10.3223 20.8848 10.3223 21.3756C10.3223 21.8665 10.7227 22.254 11.2135 22.254H12.3889H12.5827V20.4844H12.3889Z" fill="#101010"/>
<path d="M12.3889 24.0361H11.2135C10.7227 24.0361 10.3223 24.4366 10.3223 24.9274C10.3223 25.4182 10.7227 25.8057 11.2135 25.8057H12.3889H12.5827V24.0361H12.3889Z" fill="#101010"/>
</svg>
