<svg width="52" height="53" viewBox="0 0 52 53" fill="none" xmlns="http://www.w3.org/2000/svg">
<circle cx="26" cy="26.5" r="26" fill="#F1E60D"/>
<path d="M33.5 35.5752H32.55C31.55 35.5752 30.6 35.9627 29.9 36.6627L27.7625 38.7752C26.7875 39.7377 25.2 39.7377 24.225 38.7752L22.0875 36.6627C21.3875 35.9627 20.425 35.5752 19.4375 35.5752H18.5C16.425 35.5752 14.75 33.9127 14.75 31.8627V18.2252C14.75 16.1752 16.425 14.5127 18.5 14.5127H33.5C35.575 14.5127 37.25 16.1752 37.25 18.2252V31.8627C37.25 33.9002 35.575 35.5752 33.5 35.5752Z" stroke="#333333" stroke-width="1.5" stroke-miterlimit="10" stroke-linecap="round" stroke-linejoin="round"/>
<path d="M19.75 23.4505C19.75 22.288 20.7 21.3379 21.8625 21.3379C23.025 21.3379 23.975 22.288 23.975 23.4505C23.975 25.8005 20.6375 26.0505 19.9 28.288C19.75 28.7505 20.1375 29.213 20.625 29.213H23.975" stroke="#333333" stroke-width="1.5" stroke-linecap="round" stroke-linejoin="round"/>
<path d="M31.0492 29.2001V22.0626C31.0492 21.7376 30.8367 21.4501 30.5242 21.3626C30.2117 21.2751 29.8742 21.4001 29.6992 21.6751C28.7992 23.1251 27.8242 24.7751 26.9742 26.2251C26.8367 26.4626 26.8367 26.7751 26.9742 27.0126C27.1117 27.2501 27.3742 27.4 27.6617 27.4H32.2492" stroke="#333333" stroke-width="1.5" stroke-linecap="round" stroke-linejoin="round"/>
</svg>
