<svg width="52" height="53" viewBox="0 0 52 53" fill="none" xmlns="http://www.w3.org/2000/svg">
<circle cx="26" cy="26.5" r="26" fill="#F1E60D"/>
<path d="M28.5 15.65V26.0375C28.5 27.3125 27.4625 28.35 26.1875 28.35H14.75C14.0625 28.35 13.5 27.7875 13.5 27.1V19.1125C13.5 16.5625 15.5625 14.5 18.1125 14.5H27.3375C27.9875 14.5 28.5 15.0125 28.5 15.65Z" fill="#101010"/>
<path d="M37.875 31.375C38.225 31.375 38.5 31.65 38.5 32V33.25C38.5 35.325 36.825 37 34.75 37C34.75 34.9375 33.0625 33.25 31 33.25C28.9375 33.25 27.25 34.9375 27.25 37H24.75C24.75 34.9375 23.0625 33.25 21 33.25C18.9375 33.25 17.25 34.9375 17.25 37C15.175 37 13.5 35.325 13.5 33.25V30.75C13.5 30.0625 14.0625 29.5 14.75 29.5H26.625C28.35 29.5 29.75 28.1 29.75 26.375V19.5C29.75 18.8125 30.3125 18.25 31 18.25H32.05C32.95 18.25 33.775 18.7375 34.225 19.5125L35.025 20.9125C35.1375 21.1125 34.9875 21.375 34.75 21.375C33.025 21.375 31.625 22.775 31.625 24.5V28.25C31.625 29.975 33.025 31.375 34.75 31.375H37.875Z" fill="#101010"/>
<path d="M21 39.5C22.3807 39.5 23.5 38.3807 23.5 37C23.5 35.6193 22.3807 34.5 21 34.5C19.6193 34.5 18.5 35.6193 18.5 37C18.5 38.3807 19.6193 39.5 21 39.5Z" fill="#101010"/>
<path d="M31 39.5C32.3807 39.5 33.5 38.3807 33.5 37C33.5 35.6193 32.3807 34.5 31 34.5C29.6193 34.5 28.5 35.6193 28.5 37C28.5 38.3807 29.6193 39.5 31 39.5Z" fill="#101010"/>
<path d="M38.5 27.6625V29.5H34.75C34.0625 29.5 33.5 28.9375 33.5 28.25V24.5C33.5 23.8125 34.0625 23.25 34.75 23.25H36.3625L38.175 26.425C38.3875 26.8 38.5 27.225 38.5 27.6625Z" fill="#101010"/>
</svg>
