<svg width="18" height="19" viewBox="0 0 18 19" fill="none" xmlns="http://www.w3.org/2000/svg">
<path d="M12.75 17H5.25C4.9425 17 4.6875 16.745 4.6875 16.4375C4.6875 16.13 4.9425 15.875 5.25 15.875H12.75C13.0575 15.875 13.3125 16.13 13.3125 16.4375C13.3125 16.745 13.0575 17 12.75 17Z" fill="#63257B"/>
<path d="M15.2622 4.64027L12.2622 6.78527C11.8647 7.07027 11.2947 6.89777 11.1222 6.44027L9.70468 2.66027C9.46468 2.00777 8.54218 2.00777 8.30218 2.66027L6.87718 6.43277C6.70468 6.89777 6.14218 7.07027 5.74468 6.77777L2.74468 4.63277C2.14468 4.21277 1.34968 4.80527 1.59718 5.50277L4.71718 14.2403C4.82218 14.5403 5.10718 14.7353 5.42218 14.7353H12.5697C12.8847 14.7353 13.1697 14.5328 13.2747 14.2403L16.3947 5.50277C16.6497 4.80527 15.8547 4.21277 15.2622 4.64027ZM10.8747 11.5628H7.12468C6.81718 11.5628 6.56218 11.3078 6.56218 11.0003C6.56218 10.6928 6.81718 10.4378 7.12468 10.4378H10.8747C11.1822 10.4378 11.4372 10.6928 11.4372 11.0003C11.4372 11.3078 11.1822 11.5628 10.8747 11.5628Z" fill="#63257B"/>
</svg>
