<svg width="18" height="19" viewBox="0 0 18 19" fill="none" xmlns="http://www.w3.org/2000/svg">
<path d="M2.25781 8.91504V12.2825C2.25781 15.65 3.60781 17 6.97531 17H11.0178C14.3853 17 15.7353 15.65 15.7353 12.2825V8.91504" stroke="#333333" stroke-linecap="round" stroke-linejoin="round"/>
<path d="M9.00036 9.5C10.3729 9.5 11.3854 8.3825 11.2504 7.01L10.7554 2H7.25286L6.75036 7.01C6.61536 8.3825 7.62786 9.5 9.00036 9.5Z" stroke="#333333" stroke-linecap="round" stroke-linejoin="round"/>
<path d="M13.7321 9.5C15.2471 9.5 16.3571 8.27 16.2071 6.7625L15.9971 4.7C15.7271 2.75 14.9771 2 13.0121 2H10.7246L11.2496 7.2575C11.3771 8.495 12.4946 9.5 13.7321 9.5Z" stroke="#333333" stroke-linecap="round" stroke-linejoin="round"/>
<path d="M4.23077 9.5C5.46827 9.5 6.58577 8.495 6.70577 7.2575L6.87077 5.6L7.23077 2H4.94327C2.97827 2 2.22827 2.75 1.95827 4.7L1.75577 6.7625C1.60577 8.27 2.71577 9.5 4.23077 9.5Z" stroke="#333333" stroke-linecap="round" stroke-linejoin="round"/>
<path d="M9 13.25C7.7475 13.25 7.125 13.8725 7.125 15.125V17H10.875V15.125C10.875 13.8725 10.2525 13.25 9 13.25Z" stroke="#333333" stroke-linecap="round" stroke-linejoin="round"/>
</svg>
