 <svg width="52" height="53" viewBox="0 0 52 53" fill="none" xmlns="http://www.w3.org/2000/svg">
<circle cx="26" cy="26.5" r="26" fill="#F1E60D"/>
<path d="M24.3848 24.6193C24.3848 25.2718 24.566 25.3684 24.9768 25.5134L25.5931 25.7309V23.6768H25.2306C24.7714 23.6768 24.3848 24.0997 24.3848 24.6193Z" fill="#101010"/>
<path d="M27.4062 30.3227H27.7688C28.24 30.3227 28.6146 29.8998 28.6146 29.3802C28.6146 28.7277 28.4333 28.6311 28.0225 28.4861L27.4062 28.2686V30.3227Z" fill="#101010"/>
<path d="M35.6585 19.122L33.1814 21.5991C33.0002 21.7803 32.7706 21.8649 32.541 21.8649C32.3114 21.8649 32.0818 21.7803 31.9006 21.5991C31.5502 21.2487 31.5502 20.6687 31.9006 20.3182L34.3777 17.8412C32.251 16.0287 29.5081 14.917 26.4993 14.917C19.8293 14.917 14.416 20.3303 14.416 27.0003C14.416 33.6703 19.8293 39.0837 26.4993 39.0837C33.1693 39.0837 38.5827 33.6703 38.5827 27.0003C38.5827 23.9916 37.471 21.2487 35.6585 19.122ZM28.6139 26.7828C29.3873 27.0607 30.4264 27.6166 30.4264 29.3928C30.4264 30.9032 29.2302 32.1478 27.7681 32.1478H27.4056V32.4499C27.4056 32.9453 26.9948 33.3562 26.4993 33.3562C26.0039 33.3562 25.5931 32.9453 25.5931 32.4499V32.1478H25.4964C23.8893 32.1478 22.5723 30.7945 22.5723 29.127C22.5723 28.6195 22.9831 28.2087 23.4785 28.2087C23.9739 28.2087 24.3848 28.6195 24.3848 29.1149C24.3848 29.7795 24.8802 30.3232 25.4964 30.3232H25.5931V27.6407L24.3848 27.2178C23.6114 26.9399 22.5723 26.3841 22.5723 24.6078C22.5723 23.0974 23.7685 21.8528 25.2306 21.8528H25.5931V21.5628C25.5931 21.0674 26.0039 20.6566 26.4993 20.6566C26.9948 20.6566 27.4056 21.0674 27.4056 21.5628V21.8649H27.5023C29.1093 21.8649 30.4264 23.2182 30.4264 24.8857C30.4264 25.3812 30.0156 25.792 29.5202 25.792C29.0248 25.792 28.6139 25.3812 28.6139 24.8857C28.6139 24.2212 28.1185 23.6774 27.5023 23.6774H27.4056V26.3599L28.6139 26.7828Z" fill="#101010"/>
<path d="M39.4171 14.5666C39.3204 14.3491 39.1513 14.1678 38.9217 14.0712C38.8129 14.0349 38.7042 14.0107 38.5833 14.0107H33.75C33.2546 14.0107 32.8438 14.4216 32.8438 14.917C32.8438 15.4124 33.2546 15.8232 33.75 15.8232H36.3963L34.3783 17.8412C34.8375 18.2399 35.2604 18.6628 35.6592 19.122L37.6771 17.1041V19.7503C37.6771 20.2457 38.0879 20.6566 38.5833 20.6566C39.0788 20.6566 39.4896 20.2457 39.4896 19.7503V14.917C39.4896 14.7962 39.4654 14.6874 39.4171 14.5666Z" fill="#101010"/>
</svg>
