<svg width="30" height="31" viewBox="0 0 30 31" fill="none" xmlns="http://www.w3.org/2000/svg">
<circle cx="15" cy="15.5" r="15" fill="#0028FB" fill-opacity="0.2"/>
<path d="M15.991 11.5H10.6577C10.441 11.5 10.2327 11.5083 10.0327 11.5333C7.79102 11.725 6.66602 13.05 6.66602 15.4917V18.825C6.66602 22.1583 7.99935 22.8167 10.6577 22.8167H10.991C11.1743 22.8167 11.416 22.9417 11.5243 23.0833L12.5243 24.4167C12.966 25.0083 13.6827 25.0083 14.1243 24.4167L15.1243 23.0833C15.2493 22.9167 15.4493 22.8167 15.6577 22.8167H15.991C18.4327 22.8167 19.7577 21.7 19.9493 19.45C19.9743 19.25 19.9827 19.0417 19.9827 18.825V15.4917C19.9827 12.8333 18.6493 11.5 15.991 11.5ZM10.416 18.1667C9.94935 18.1667 9.58268 17.7917 9.58268 17.3333C9.58268 16.875 9.95768 16.5 10.416 16.5C10.8743 16.5 11.2493 16.875 11.2493 17.3333C11.2493 17.7917 10.8743 18.1667 10.416 18.1667ZM13.3243 18.1667C12.8577 18.1667 12.491 17.7917 12.491 17.3333C12.491 16.875 12.866 16.5 13.3243 16.5C13.7827 16.5 14.1577 16.875 14.1577 17.3333C14.1577 17.7917 13.791 18.1667 13.3243 18.1667ZM16.241 18.1667C15.7743 18.1667 15.4077 17.7917 15.4077 17.3333C15.4077 16.875 15.7827 16.5 16.241 16.5C16.6993 16.5 17.0743 16.875 17.0743 17.3333C17.0743 17.7917 16.6993 18.1667 16.241 18.1667Z" fill="#0028FB"/>
<path d="M23.3162 12.1582V15.4915C23.3162 17.1582 22.7996 18.2915 21.7662 18.9165C21.5162 19.0665 21.2246 18.8665 21.2246 18.5748L21.2329 15.4915C21.2329 12.1582 19.3246 10.2498 15.9912 10.2498L10.9162 10.2582C10.6246 10.2582 10.4246 9.9665 10.5746 9.7165C11.1996 8.68317 12.3329 8.1665 13.9912 8.1665H19.3246C21.9829 8.1665 23.3162 9.49984 23.3162 12.1582Z" fill="#0028FB"/>
</svg>
