<svg fill="#FEBF00" viewBox="0 0 24 24" id="invoice-dollar-left" data-name="Line Color" xmlns="http://www.w3.org/2000/svg" class="icon line-color"><g id="SVGRepo_bgCarrier" stroke-width="0"></g><g id="SVGRepo_tracerCarrier" stroke-linecap="round" stroke-linejoin="round"></g><g id="SVGRepo_iconCarrier"><path id="secondary" d="M8,7H5.5A1.5,1.5,0,0,0,4,8.5H4A1.5,1.5,0,0,0,5.5,10h1A1.5,1.5,0,0,1,8,11.5H8A1.5,1.5,0,0,1,6.5,13H4" style="fill: none; stroke: #2ca9bc; stroke-linecap: round; stroke-linejoin: round; stroke-width: 2;"></path><path id="secondary-2" data-name="secondary" d="M10,17h6m-4-4h4M6,7V6m0,8V13" style="fill: none; stroke: #2ca9bc; stroke-linecap: round; stroke-linejoin: round; stroke-width: 2;"></path><path id="primary" d="M9,3H19a1,1,0,0,1,1,1V20a1,1,0,0,1-1,1H7a1,1,0,0,1-1-1V18" style="fill: none; stroke: #FEBF00; stroke-linecap: round; stroke-linejoin: round; stroke-width: 2;"></path></g></svg>