<svg width="18" height="19" viewBox="0 0 18 19" fill="none" xmlns="http://www.w3.org/2000/svg">
<path d="M7.6875 8.0225C7.6875 8.4275 7.8 8.4875 8.055 8.5775L8.4375 8.7125V7.4375H8.2125C7.9275 7.4375 7.6875 7.7 7.6875 8.0225Z" fill="#333333"/>
<path d="M9.5625 11.5625H9.7875C10.08 11.5625 10.3125 11.3 10.3125 10.9775C10.3125 10.5725 10.2 10.5125 9.945 10.4225L9.5625 10.2875V11.5625Z" fill="#333333"/>
<path d="M14.685 4.61L13.1475 6.1475C13.035 6.26 12.8925 6.3125 12.75 6.3125C12.6075 6.3125 12.465 6.26 12.3525 6.1475C12.135 5.93 12.135 5.57 12.3525 5.3525L13.89 3.815C12.57 2.69 10.8675 2 9 2C4.86 2 1.5 5.36 1.5 9.5C1.5 13.64 4.86 17 9 17C13.14 17 16.5 13.64 16.5 9.5C16.5 7.6325 15.81 5.93 14.685 4.61ZM10.3125 9.365C10.7925 9.5375 11.4375 9.8825 11.4375 10.985C11.4375 11.9225 10.695 12.695 9.7875 12.695H9.5625V12.8825C9.5625 13.19 9.3075 13.445 9 13.445C8.6925 13.445 8.4375 13.19 8.4375 12.8825V12.695H8.3775C7.38 12.695 6.5625 11.855 6.5625 10.82C6.5625 10.505 6.8175 10.25 7.125 10.25C7.4325 10.25 7.6875 10.505 7.6875 10.8125C7.6875 11.225 7.995 11.5625 8.3775 11.5625H8.4375V9.8975L7.6875 9.635C7.2075 9.4625 6.5625 9.1175 6.5625 8.015C6.5625 7.0775 7.305 6.305 8.2125 6.305H8.4375V6.125C8.4375 5.8175 8.6925 5.5625 9 5.5625C9.3075 5.5625 9.5625 5.8175 9.5625 6.125V6.3125H9.6225C10.62 6.3125 11.4375 7.1525 11.4375 8.1875C11.4375 8.495 11.1825 8.75 10.875 8.75C10.5675 8.75 10.3125 8.495 10.3125 8.1875C10.3125 7.775 10.005 7.4375 9.6225 7.4375H9.5625V9.1025L10.3125 9.365Z" fill="#333333"/>
<path d="M17.0175 1.7825C16.9575 1.6475 16.8525 1.535 16.71 1.475C16.6425 1.4525 16.575 1.4375 16.5 1.4375H13.5C13.1925 1.4375 12.9375 1.6925 12.9375 2C12.9375 2.3075 13.1925 2.5625 13.5 2.5625H15.1425L13.89 3.815C14.175 4.0625 14.4375 4.325 14.685 4.61L15.9375 3.3575V5C15.9375 5.3075 16.1925 5.5625 16.5 5.5625C16.8075 5.5625 17.0625 5.3075 17.0625 5V2C17.0625 1.925 17.0475 1.8575 17.0175 1.7825Z" fill="#333333"/>
</svg>
