<svg width="40" height="40" viewBox="0 0 40 40" fill="none" xmlns="http://www.w3.org/2000/svg">
<path d="M20.0007 3.33398C10.8173 3.33398 3.33398 10.8173 3.33398 20.0007C3.33398 29.184 10.8173 36.6673 20.0007 36.6673C29.184 36.6673 36.6673 29.184 36.6673 20.0007C36.6673 10.8173 29.184 3.33398 20.0007 3.33398ZM24.6507 20.884L18.7673 26.7673C18.5173 27.0173 18.2007 27.134 17.884 27.134C17.5673 27.134 17.2507 27.0173 17.0007 26.7673C16.5173 26.284 16.5173 25.484 17.0007 25.0007L22.0007 20.0007L17.0007 15.0007C16.5173 14.5173 16.5173 13.7173 17.0007 13.234C17.484 12.7507 18.284 12.7507 18.7673 13.234L24.6507 19.1173C25.1507 19.6007 25.1507 20.4007 24.6507 20.884Z" fill="black"/>
</svg>
