<svg width="24" height="24" viewBox="0 0 24 24" fill="none" xmlns="http://www.w3.org/2000/svg">
<path d="M11.25 7.85938H2V16.1894C2 16.2494 2 16.3094 2.01 16.3594H11.25V7.85938Z" fill="#101010"/>
<path d="M7.68994 6.36H11.2499V2H7.71994V6.24C7.71994 6.28 7.69994 6.32 7.68994 6.36Z" fill="#101010"/>
<path d="M6.22 6.24016V2.16016C4 2.62016 2.55 4.10016 2.13 6.36016H6.24C6.23 6.32016 6.22 6.28016 6.22 6.24016Z" fill="#101010"/>
<path d="M16.22 2H12.75V6.36H16.22V2Z" fill="#101010"/>
<path d="M17.71 6.36039H21.87C21.45 4.08039 19.98 2.59039 17.72 2.15039V6.33039C17.72 6.34039 17.71 6.35039 17.71 6.36039Z" fill="#101010"/>
<path d="M17.72 21.8494C19.91 21.4194 21.35 20.0194 21.82 17.8594H17.72V21.8494Z" fill="#101010"/>
<path d="M16.22 17.8594H12.75V21.9994H16.22V17.8594Z" fill="#101010"/>
<path d="M12.75 16.3594H21.99C22 16.3094 22 16.2494 22 16.1894V7.85938H12.75V16.3594Z" fill="#101010"/>
<path d="M11.25 17.8594H7.71997V21.9994H11.25V17.8594Z" fill="#101010"/>
<path d="M2.18005 17.8594C2.65005 19.9994 4.07005 21.3994 6.22005 21.8394V17.8594H2.18005Z" fill="#101010"/>
</svg>
