<svg width="37" height="37" viewBox="0 0 37 37" fill="none" xmlns="http://www.w3.org/2000/svg">
<g clip-path="url(#clip0_1_40886)">
<path d="M20.5014 2.60932C17.3629 2.2045 14.1748 2.73944 11.3403 4.1465C8.50584 5.55356 6.15226 7.76954 4.5772 10.5142C3.00214 13.2589 2.27635 16.409 2.49159 19.5662C2.70684 22.7233 3.85346 25.7458 5.78646 28.2513C7.71947 30.7568 10.352 32.6328 13.3512 33.6422C16.3505 34.6515 19.5816 34.7488 22.6361 33.9218C25.6907 33.0947 28.4313 31.3805 30.5116 28.9958C32.5918 26.6112 33.9183 23.6632 34.3231 20.5247C34.8612 16.3169 33.7082 12.0675 31.1169 8.70881C28.5257 5.35014 24.708 3.15654 20.5014 2.60932V2.60932ZM31.6783 20.1835C31.3456 22.7752 30.2541 25.2107 28.541 27.1837L27.1682 25.4028C27.0606 25.263 27.0129 25.0861 27.0354 24.9111L27.1995 23.639C27.3352 22.5868 27.0474 21.5239 26.3994 20.6839C25.7513 19.844 24.7962 19.2958 23.7441 19.1601L19.7769 18.6484C19.4262 18.6032 19.1078 18.4205 18.8918 18.1405C18.6758 17.8605 18.5799 17.5062 18.6251 17.1555L18.7104 16.4943C18.733 16.3189 18.8244 16.1597 18.9644 16.0517C19.1043 15.9437 19.2815 15.8958 19.4569 15.9184C20.3337 16.0315 21.2195 15.7916 21.9194 15.2516C22.6194 14.7116 23.0761 13.9157 23.1892 13.0389L23.3598 11.7165C23.3824 11.5411 23.4738 11.3819 23.6138 11.2739C23.7538 11.1659 23.9309 11.118 24.1063 11.1406L25.9298 11.3758C26.8061 11.4863 27.6906 11.2468 28.3913 10.7092L28.9542 10.275C30.0431 11.6631 30.8448 13.2542 31.3125 14.9554C31.7802 16.6565 31.9046 18.4338 31.6783 20.1835ZM5.13129 18.054L8.76871 22.7687C9.08849 23.186 9.48796 23.5356 9.94392 23.7973C10.3999 24.0589 10.9033 24.2274 11.4249 24.293L14.9569 24.7486C15.3077 24.7939 15.626 24.9766 15.842 25.2565C16.058 25.5365 16.154 25.8908 16.1087 26.2416L15.4352 31.4636C12.434 30.7609 9.7683 29.0417 7.89025 26.5976C6.0122 24.1534 5.03743 21.1349 5.13129 18.054ZM18.0799 31.8048L18.7535 26.5827C18.8892 25.5306 18.6014 24.4676 17.9534 23.6276C17.3054 22.7877 16.3502 22.2396 15.2981 22.1039L11.766 21.6483C11.5921 21.626 11.4243 21.5696 11.2723 21.4824C11.1202 21.3952 10.9868 21.2789 10.8797 21.1401L5.74497 14.4845C6.40088 12.3821 7.56848 10.4754 9.14299 8.93544C10.7175 7.39553 12.6497 6.27058 14.7662 5.66154C16.8827 5.0525 19.1172 4.97841 21.2694 5.44592C23.4216 5.91344 25.424 6.90794 27.0971 8.34018L26.7627 8.59818C26.6224 8.70488 26.4459 8.75256 26.271 8.73104L24.4474 8.49583C23.5706 8.38273 22.6848 8.62257 21.9849 9.16259C21.2849 9.70261 20.8281 10.4986 20.715 11.3754L20.5445 12.6977C20.5219 12.8731 20.4305 13.0323 20.2905 13.1403C20.1505 13.2483 19.9734 13.2963 19.798 13.2736C18.9212 13.1605 18.0354 13.4004 17.3354 13.9404C16.6355 14.4804 16.1787 15.2764 16.0656 16.1532L15.9803 16.8143C15.8446 17.8665 16.1324 18.9295 16.7805 19.7694C17.4285 20.6094 18.3836 21.1575 19.4358 21.2932L23.4029 21.8049C23.7536 21.8501 24.072 22.0328 24.288 22.3128C24.504 22.5928 24.6 22.9471 24.5547 23.2978L24.3906 24.57C24.2801 25.4462 24.5197 26.3307 25.0572 27.0315L26.5972 29.0275C24.1649 30.9108 21.1548 31.8923 18.0799 31.8048Z" fill="#101010"/>
</g>
<defs>
<clipPath id="clip0_1_40886">
<rect width="32" height="32" fill="white" transform="translate(4.63281 0.5625) rotate(7.34978)"/>
</clipPath>
</defs>
</svg>
