<svg width="40" height="40" viewBox="0 0 40 40" fill="none" xmlns="http://www.w3.org/2000/svg">
<g clip-path="url(#clip0_1_40887)">
<path d="M17.2868 36.9986L16.3935 36.0013C15.1583 34.6539 4.41548 22.5702 5.43076 14.9068C6.49374 6.88327 13.8598 1.24063 21.8833 2.30362C29.9068 3.3666 35.5495 10.7327 34.4865 18.7562C33.4712 26.4197 19.9524 35.2891 18.414 36.2748L17.2868 36.9986ZM21.4672 5.44497C15.1806 4.61934 9.41204 9.03823 8.57218 15.3229C7.93436 20.1372 14.3788 28.8168 17.8356 32.8565C22.2253 29.8548 30.708 23.1484 31.3451 18.3399C32.1707 12.0534 27.7519 6.2849 21.4672 5.44497Z" fill="#101010"/>
<path d="M19.1957 22.589C16.0153 22.1676 13.7786 19.2478 14.2 16.0673C14.6213 12.8869 17.5412 10.6502 20.7216 11.0715C23.9021 11.4929 26.1388 14.4127 25.7174 17.5932C25.296 20.7736 22.3763 23.0103 19.1957 22.589ZM20.3402 13.9508C18.7499 13.7401 17.29 14.8585 17.0793 16.4487C16.8686 18.0389 17.987 19.4989 19.5772 19.7096C21.1674 19.9202 22.6274 18.8019 22.838 17.2117C23.0487 15.6214 21.9304 14.1615 20.3402 13.9508Z" fill="#101010"/>
</g>
<defs>
<clipPath id="clip0_1_40887">
<rect width="35" height="35" fill="white" transform="translate(4.59766) rotate(7.54683)"/>
</clipPath>
</defs>
</svg>
