
<svg width="22" height="21" viewBox="0 0 22 21" fill="none" xmlns="http://www.w3.org/2000/svg">
<path d="M19.3056 19.0631C19.1502 19.0631 18.9948 19.0027 18.8825 18.8904L17.2764 17.2844C17.0433 17.0512 17.0433 16.6713 17.2764 16.4295C17.5096 16.1964 17.8895 16.1964 18.1313 16.4295L19.7374 18.0356C19.9705 18.2687 19.9705 18.6487 19.7374 18.8904C19.6165 19.0027 19.4611 19.0631 19.3056 19.0631Z" fill="white"/>
<path d="M10.8438 1.79321C6.3191 1.79321 2.64062 5.47169 2.64062 9.99639C2.64062 14.5211 6.3191 18.1996 10.8438 18.1996C15.3685 18.1996 19.047 14.5211 19.047 9.99639C19.047 5.47169 15.3685 1.79321 10.8438 1.79321ZM13.1752 10.8167H11.6641V12.3278C11.6641 12.6818 11.3705 12.9754 11.0165 12.9754C10.6625 12.9754 10.3689 12.6818 10.3689 12.3278V10.8167H8.85777C8.50374 10.8167 8.21015 10.5231 8.21015 10.1691C8.21015 9.81505 8.50374 9.52147 8.85777 9.52147H10.3689V8.01036C10.3689 7.65632 10.6625 7.36274 11.0165 7.36274C11.3705 7.36274 11.6641 7.65632 11.6641 8.01036V9.52147H13.1752C13.5293 9.52147 13.8228 9.81505 13.8228 10.1691C13.8228 10.5231 13.5293 10.8167 13.1752 10.8167Z" fill="white"/>
</svg>
