<svg width="32" height="32" viewBox="0 0 32 32" fill="none" xmlns="http://www.w3.org/2000/svg">
<path d="M12.0397 28.9201L15.1463 26.3067C15.613 25.9067 16.3863 25.9067 16.853 26.3067L19.9597 28.9201C20.6797 29.2801 21.5597 28.9201 21.8263 28.1467L22.413 26.3734C22.5597 25.9467 22.413 25.3201 22.093 25.0001L19.0663 21.9601C18.8397 21.7467 18.6663 21.3201 18.6663 21.0134V17.2134C18.6663 16.6534 19.0797 16.3867 19.5997 16.6001L26.1463 19.4267C27.173 19.8667 28.013 19.3201 28.013 18.2001V16.4801C28.013 15.5867 27.3463 14.5601 26.5197 14.2134L19.0663 11.0001C18.853 10.9067 18.6663 10.6267 18.6663 10.3867V6.38672C18.6663 5.13339 17.7463 3.65339 16.6263 3.08005C16.2263 2.88005 15.7597 2.88005 15.3597 3.08005C14.2397 3.65339 13.3197 5.14672 13.3197 6.40005V10.4001C13.3197 10.6401 13.133 10.9201 12.9197 11.0134L5.47966 14.2267C4.65299 14.5601 3.98633 15.5867 3.98633 16.4801V18.2001C3.98633 19.3201 4.82633 19.8667 5.85299 19.4267L12.3997 16.6001C12.9063 16.3734 13.333 16.6534 13.333 17.2134V21.0134C13.333 21.3201 13.1597 21.7467 12.9463 21.9601L9.91966 25.0001C9.59966 25.3201 9.453 25.9334 9.59966 26.3734L10.1863 28.1467C10.4263 28.9201 11.3063 29.2934 12.0397 28.9201Z" stroke="#101010" stroke-width="1.5" stroke-linecap="round" stroke-linejoin="round"/>
</svg>
