<svg width="32" height="32" viewBox="0 0 32 32" fill="none" xmlns="http://www.w3.org/2000/svg">
<path d="M27.2267 16.4933C28.3867 16.9599 29.1067 18.3333 28.84 19.5466L28.2933 22.0266C27.3467 26.2933 24 29.3333 19.1733 29.3333H12.8266C7.99998 29.3333 4.65332 26.2933 3.70665 22.0266L3.15998 19.5466C2.89331 18.3333 3.6133 16.9599 4.7733 16.4933L6.66665 15.7333L14.0133 12.7866C15.2933 12.2799 16.7066 12.2799 17.9866 12.7866L25.3333 15.7333L27.2267 16.4933Z" stroke="#101010" stroke-width="1.5" stroke-linecap="round" stroke-linejoin="round"/>
<path d="M16 29.3334V13.3334" stroke="#101010" stroke-width="1.5" stroke-linecap="round" stroke-linejoin="round"/>
<path d="M25.3337 10.6666V15.7333L17.987 12.7866C16.707 12.28 15.2937 12.28 14.0137 12.7866L6.66699 15.7333V10.6666C6.66699 8.46663 8.46699 6.66663 10.667 6.66663H21.3337C23.5337 6.66663 25.3337 8.46663 25.3337 10.6666Z" stroke="#101010" stroke-width="1.5" stroke-linecap="round" stroke-linejoin="round"/>
<path d="M19.3337 6.66663H12.667V3.99996C12.667 3.26663 13.267 2.66663 14.0003 2.66663H18.0003C18.7337 2.66663 19.3337 3.26663 19.3337 3.99996V6.66663Z" stroke="#101010" stroke-width="1.5" stroke-linecap="round" stroke-linejoin="round"/>
</svg>
