<svg width="32" height="32" viewBox="0 0 32 32" fill="none" xmlns="http://www.w3.org/2000/svg">
<path d="M29.334 7.99996V11.2266C29.334 13.3333 28.0007 14.6666 25.894 14.6666H21.334V5.34662C21.334 3.86662 22.5473 2.66663 24.0273 2.66663C25.4807 2.67996 26.814 3.26662 27.774 4.22662C28.734 5.19996 29.334 6.53329 29.334 7.99996Z" stroke="#101010" stroke-width="1.5" stroke-miterlimit="10" stroke-linecap="round" stroke-linejoin="round"/>
<path d="M2.66602 9.33329V28C2.66602 29.1066 3.91935 29.7333 4.79935 29.0666L7.07935 27.36C7.61268 26.96 8.35935 27.0133 8.83935 27.4933L11.0527 29.72C11.5727 30.24 12.426 30.24 12.946 29.72L15.186 27.48C15.6527 27.0133 16.3993 26.96 16.9193 27.36L19.1993 29.0666C20.0793 29.72 21.3327 29.0933 21.3327 28V5.33329C21.3327 3.86663 22.5327 2.66663 23.9993 2.66663H9.33268H7.99935C3.99935 2.66663 2.66602 5.05329 2.66602 7.99996V9.33329Z" stroke="#101010" stroke-width="1.5" stroke-miterlimit="10" stroke-linecap="round" stroke-linejoin="round"/>
<path d="M12 17.3467H16" stroke="#101010" stroke-width="1.5" stroke-linecap="round" stroke-linejoin="round"/>
<path d="M12 12.0133H16" stroke="#101010" stroke-width="1.5" stroke-linecap="round" stroke-linejoin="round"/>
<path d="M7.99414 17.3334H8.00612" stroke="#101010" stroke-width="2" stroke-linecap="round" stroke-linejoin="round"/>
<path d="M7.99414 12H8.00612" stroke="#101010" stroke-width="2" stroke-linecap="round" stroke-linejoin="round"/>
</svg>
