<svg width="32" height="32" viewBox="0 0 32 32" fill="none" xmlns="http://www.w3.org/2000/svg">
<path d="M20.0003 2.66663V16C20.0003 17.4666 18.8003 18.6666 17.3337 18.6666H2.66699V7.99996C2.66699 5.05329 5.05366 2.66663 8.00033 2.66663H20.0003Z" stroke="#101010" stroke-width="1.5" stroke-linecap="round" stroke-linejoin="round"/>
<path d="M29.3337 18.6666V22.6666C29.3337 24.88 27.547 26.6666 25.3337 26.6666H24.0003C24.0003 25.2 22.8003 24 21.3337 24C19.867 24 18.667 25.2 18.667 26.6666H13.3337C13.3337 25.2 12.1337 24 10.667 24C9.20033 24 8.00033 25.2 8.00033 26.6666H6.66699C4.45366 26.6666 2.66699 24.88 2.66699 22.6666V18.6666H17.3337C18.8003 18.6666 20.0003 17.4666 20.0003 16V6.66663H22.4537C23.4137 6.66663 24.2936 7.18664 24.7736 8.01331L27.0537 12H25.3337C24.6003 12 24.0003 12.6 24.0003 13.3333V17.3333C24.0003 18.0666 24.6003 18.6666 25.3337 18.6666H29.3337Z" stroke="#101010" stroke-width="1.5" stroke-linecap="round" stroke-linejoin="round"/>
<path d="M10.6667 29.3333C12.1394 29.3333 13.3333 28.1394 13.3333 26.6667C13.3333 25.1939 12.1394 24 10.6667 24C9.19391 24 8 25.1939 8 26.6667C8 28.1394 9.19391 29.3333 10.6667 29.3333Z" stroke="#101010" stroke-width="1.5" stroke-linecap="round" stroke-linejoin="round"/>
<path d="M21.3337 29.3333C22.8064 29.3333 24.0003 28.1394 24.0003 26.6667C24.0003 25.1939 22.8064 24 21.3337 24C19.8609 24 18.667 25.1939 18.667 26.6667C18.667 28.1394 19.8609 29.3333 21.3337 29.3333Z" stroke="#101010" stroke-width="1.5" stroke-linecap="round" stroke-linejoin="round"/>
<path d="M29.3333 16V18.6667H25.3333C24.6 18.6667 24 18.0667 24 17.3333V13.3333C24 12.6 24.6 12 25.3333 12H27.0533L29.3333 16Z" stroke="#101010" stroke-width="1.5" stroke-linecap="round" stroke-linejoin="round"/>
</svg>
