<svg width="22" height="21" viewBox="0 0 22 21" fill="none" xmlns="http://www.w3.org/2000/svg">
<path d="M18.6962 19.0631C18.5408 19.0631 18.3854 19.0027 18.2731 18.8904L16.667 17.2844C16.4339 17.0512 16.4339 16.6713 16.667 16.4295C16.9002 16.1964 17.2801 16.1964 17.5219 16.4295L19.128 18.0356C19.3611 18.2687 19.3611 18.6487 19.128 18.8904C19.0071 19.0027 18.8517 19.0631 18.6962 19.0631Z" fill="white"/>
<path d="M10.2344 1.79321C5.70973 1.79321 2.03125 5.47169 2.03125 9.99639C2.03125 14.5211 5.70973 18.1996 10.2344 18.1996C14.7591 18.1996 18.4376 14.5211 18.4376 9.99639C18.4376 5.47169 14.7591 1.79321 10.2344 1.79321ZM12.3932 10.8167H8.0757C7.72166 10.8167 7.42808 10.5231 7.42808 10.1691C7.42808 9.81505 7.72166 9.52147 8.0757 9.52147H12.3932C12.7472 9.52147 13.0408 9.81505 13.0408 10.1691C13.0408 10.5231 12.7472 10.8167 12.3932 10.8167Z" fill="white"/>
</svg>