<svg width="18" height="19" viewBox="0 0 18 19" fill="none" xmlns="http://www.w3.org/2000/svg">
<path d="M8.2575 15.515C11.9896 15.515 15.015 12.4896 15.015 8.7575C15.015 5.02544 11.9896 2 8.2575 2C4.52544 2 1.5 5.02544 1.5 8.7575C1.5 12.4896 4.52544 15.515 8.2575 15.515Z" fill="#101010"/>
<path d="M16.492 14.7125C16.2445 14.255 15.7195 14 15.0145 14C14.482 14 14.0246 14.2175 13.7546 14.5925C13.4846 14.9675 13.4246 15.47 13.5896 15.9725C13.9121 16.9475 14.4745 17.165 14.782 17.2025C14.827 17.21 14.872 17.21 14.9245 17.21C15.2545 17.21 15.7645 17.0675 16.2595 16.325C16.657 15.7475 16.732 15.17 16.492 14.7125Z" fill="#101010"/>
</svg>
