<svg width="18" height="19" viewBox="0 0 18 19" fill="none" xmlns="http://www.w3.org/2000/svg">
<path d="M9.00031 11H9.75031C10.5753 11 11.2503 10.325 11.2503 9.5V2H4.50031C3.37531 2 2.39281 2.62249 1.88281 3.53749" stroke="#333333" stroke-width="1.5" stroke-linecap="round" stroke-linejoin="round"/>
<path d="M1.5 13.25C1.5 14.495 2.505 15.5 3.75 15.5H4.5C4.5 14.675 5.175 14 6 14C6.825 14 7.5 14.675 7.5 15.5H10.5C10.5 14.675 11.175 14 12 14C12.825 14 13.5 14.675 13.5 15.5H14.25C15.495 15.5 16.5 14.495 16.5 13.25V11H14.25C13.8375 11 13.5 10.6625 13.5 10.25V8C13.5 7.5875 13.8375 7.25 14.25 7.25H15.2175L13.935 5.00751C13.665 4.54251 13.17 4.25 12.63 4.25H11.25V9.5C11.25 10.325 10.575 11 9.75 11H9" stroke="#333333" stroke-width="1.5" stroke-linecap="round" stroke-linejoin="round"/>
<path d="M6 17C6.82843 17 7.5 16.3284 7.5 15.5C7.5 14.6716 6.82843 14 6 14C5.17157 14 4.5 14.6716 4.5 15.5C4.5 16.3284 5.17157 17 6 17Z" stroke="#333333" stroke-width="1.5" stroke-linecap="round" stroke-linejoin="round"/>
<path d="M12 17C12.8284 17 13.5 16.3284 13.5 15.5C13.5 14.6716 12.8284 14 12 14C11.1716 14 10.5 14.6716 10.5 15.5C10.5 16.3284 11.1716 17 12 17Z" stroke="#333333" stroke-width="1.5" stroke-linecap="round" stroke-linejoin="round"/>
<path d="M16.5 9.5V11H14.25C13.8375 11 13.5 10.6625 13.5 10.25V8C13.5 7.5875 13.8375 7.25 14.25 7.25H15.2175L16.5 9.5Z" stroke="#333333" stroke-width="1.5" stroke-linecap="round" stroke-linejoin="round"/>
<path d="M1.5 6.5H6" stroke="#333333" stroke-width="1.5" stroke-linecap="round" stroke-linejoin="round"/>
<path d="M1.5 8.75H4.5" stroke="#333333" stroke-width="1.5" stroke-linecap="round" stroke-linejoin="round"/>
<path d="M1.5 11H3" stroke="#333333" stroke-width="1.5" stroke-linecap="round" stroke-linejoin="round"/>
</svg>
