<svg width="18" height="19" viewBox="0 0 18 19" fill="none" xmlns="http://www.w3.org/2000/svg">
<path d="M13.5 14.6453H12.93C12.33 14.6453 11.76 14.8778 11.34 15.2978L10.0575 16.5653C9.4725 17.1428 8.52 17.1428 7.935 16.5653L6.6525 15.2978C6.2325 14.8778 5.655 14.6453 5.0625 14.6453H4.5C3.255 14.6453 2.25 13.6478 2.25 12.4178V4.23529C2.25 3.00529 3.255 2.00781 4.5 2.00781H13.5C14.745 2.00781 15.75 3.00529 15.75 4.23529V12.4178C15.75 13.6403 14.745 14.6453 13.5 14.6453Z" stroke="#333333" stroke-width="1.5" stroke-miterlimit="10" stroke-linecap="round" stroke-linejoin="round"/>
<path d="M5.25 7.37106C5.25 6.67356 5.82 6.10352 6.5175 6.10352C7.215 6.10352 7.785 6.67356 7.785 7.37106C7.785 8.78106 5.7825 8.93106 5.34 10.2736C5.25 10.5511 5.4825 10.8286 5.775 10.8286H7.785" stroke="#333333" stroke-width="1.5" stroke-linecap="round" stroke-linejoin="round"/>
<path d="M12.0303 10.8206V6.53816C12.0303 6.34316 11.9028 6.17062 11.7153 6.11812C11.5278 6.06562 11.3253 6.14062 11.2203 6.30562C10.6803 7.17562 10.0953 8.16563 9.58531 9.03563C9.50281 9.17813 9.50281 9.36563 9.58531 9.50813C9.66781 9.65063 9.82531 9.74059 9.99781 9.74059H12.7503" stroke="#333333" stroke-width="1.5" stroke-linecap="round" stroke-linejoin="round"/>
</svg>
