<svg width="41" height="40" viewBox="0 0 41 40" fill="none" xmlns="http://www.w3.org/2000/svg">
<path d="M30.1669 14.4673H10.8336C10.4502 14.4673 10.1002 14.3007 9.86691 14.0007C9.63357 13.7007 9.53358 13.3174 9.61692 12.9507L10.9836 6.41728C11.4336 4.26728 12.4169 2.08398 16.2502 2.08398H24.7503C28.6003 2.08398 29.5836 4.28394 30.0169 6.41728L31.3836 12.9507C31.4669 13.3174 31.3669 13.7007 31.1336 14.0007C30.9003 14.3007 30.5503 14.4673 30.1669 14.4673ZM12.3669 11.9673H28.6169L27.5669 6.95062C27.2336 5.35062 26.8502 4.60067 24.7336 4.60067H16.2336C14.1336 4.60067 13.7336 5.35062 13.4003 6.95062L12.3669 11.9673Z" fill="white"/>
<path d="M30.1172 27.7502H27.8506C25.6506 27.7502 25.2006 26.3835 24.9506 25.6502L24.7006 24.9168C24.4339 24.1168 24.4339 24.1168 23.5839 24.1168H17.4006C16.5506 24.1168 16.5506 24.1335 16.2839 24.9168L16.0339 25.6502C15.7839 26.3835 15.3339 27.7502 13.1339 27.7502H10.8672C9.81722 27.7502 8.80055 27.3001 8.10055 26.5334C7.41722 25.7834 7.06722 24.7668 7.16722 23.7501L7.85056 16.4002C8.06723 14.1002 8.81721 11.9668 12.7839 11.9668H28.2005C32.1672 11.9668 32.9172 14.1002 33.1339 16.4002L33.8172 23.7668C33.9172 24.7835 33.5672 25.8001 32.8839 26.5501C32.1839 27.3168 31.1672 27.7502 30.1172 27.7502ZM27.4672 25.2335C27.5005 25.2335 27.6339 25.2502 27.8506 25.2502H30.1172C30.4672 25.2502 30.8006 25.1168 31.0339 24.8501C31.2506 24.6168 31.3506 24.3002 31.3339 23.9835L30.6505 16.6168C30.5172 15.1334 30.4506 14.4501 28.2172 14.4501H12.8006C10.5672 14.4501 10.5006 15.1334 10.3672 16.6168L9.68388 23.9835C9.65055 24.3002 9.75056 24.6168 9.98389 24.8501C10.2172 25.1001 10.5506 25.2502 10.9006 25.2502H13.1672C13.5006 25.2502 13.6005 25.2001 13.6172 25.2001C13.6005 25.2001 13.6506 25.0001 13.7006 24.8668L13.9506 24.1334C14.2672 23.2001 14.7839 21.6168 17.4339 21.6168H23.6172C26.0339 21.6168 26.6506 22.8002 27.0839 24.1002L27.3339 24.8501C27.3672 25.0001 27.4172 25.1668 27.4672 25.2335C27.4672 25.2335 27.4505 25.2335 27.4672 25.2335Z" fill="white"/>
<path d="M10.8338 10.834H9.61719C8.93385 10.834 8.36719 10.2673 8.36719 9.58398C8.36719 8.90065 8.93385 8.33398 9.61719 8.33398H10.8338C11.5172 8.33398 12.0838 8.90065 12.0838 9.58398C12.0838 10.2673 11.5172 10.834 10.8338 10.834Z" fill="white"/>
<path d="M31.3827 10.834H30.166C29.4827 10.834 28.916 10.2673 28.916 9.58398C28.916 8.90065 29.4827 8.33398 30.166 8.33398H31.3827C32.066 8.33398 32.6327 8.90065 32.6327 9.58398C32.6327 10.2673 32.066 10.834 31.3827 10.834Z" fill="white"/>
<path d="M16.8677 19.3008H13.2344C12.551 19.3008 11.9844 18.7341 11.9844 18.0508C11.9844 17.3674 12.551 16.8008 13.2344 16.8008H16.8677C17.5511 16.8008 18.1177 17.3674 18.1177 18.0508C18.1177 18.7341 17.5677 19.3008 16.8677 19.3008Z" fill="white"/>
<path d="M27.7505 19.3008H24.1172C23.4339 19.3008 22.8672 18.7341 22.8672 18.0508C22.8672 17.3674 23.4339 16.8008 24.1172 16.8008H27.7505C28.4339 16.8008 29.0005 17.3674 29.0005 18.0508C29.0005 18.7341 28.4339 19.3008 27.7505 19.3008Z" fill="white"/>
<path d="M20.5 31.2507C19.8167 31.2507 19.25 30.684 19.25 30.0007V28.334C19.25 27.6507 19.8167 27.084 20.5 27.084C21.1833 27.084 21.75 27.6507 21.75 28.334V30.0007C21.75 30.684 21.1833 31.2507 20.5 31.2507Z" fill="white"/>
<path d="M20.5 37.9167C19.8167 37.9167 19.25 37.35 19.25 36.6667V35C19.25 34.3167 19.8167 33.75 20.5 33.75C21.1833 33.75 21.75 34.3167 21.75 35V36.6667C21.75 37.35 21.1833 37.9167 20.5 37.9167Z" fill="white"/>
<path d="M3.83349 37.9161C3.73349 37.9161 3.6335 37.8994 3.5335 37.8828C2.86683 37.7161 2.45016 37.0328 2.61683 36.3662L4.2835 29.6995C4.45016 29.0328 5.11681 28.6162 5.80014 28.7828C6.46681 28.9495 6.88348 29.6328 6.71681 30.2995L5.05015 36.9661C4.90015 37.5328 4.40016 37.9161 3.83349 37.9161Z" fill="white"/>
<path d="M37.1671 37.9171C36.6005 37.9171 36.1005 37.5338 35.9505 36.9671L34.2838 30.3004C34.1171 29.6338 34.5172 28.9505 35.2005 28.7838C35.8672 28.6171 36.5505 29.0171 36.7171 29.7005L38.3838 36.3671C38.5505 37.0338 38.1505 37.7171 37.4671 37.8838C37.3671 37.9004 37.2671 37.9171 37.1671 37.9171Z" fill="white"/>
</svg>
