<svg width="16" height="16" viewBox="0 0 16 16" fill="none" xmlns="http://www.w3.org/2000/svg">
<path d="M7.98443 1.69629C4.64504 1.69629 1.92383 4.4175 1.92383 7.75689C1.92383 11.0963 4.64504 13.8175 7.98443 13.8175C11.3238 13.8175 14.045 11.0963 14.045 7.75689C14.045 4.4175 11.3238 1.69629 7.98443 1.69629ZM10.4087 8.21144H8.43898V10.1811C8.43898 10.4296 8.23292 10.6357 7.98443 10.6357C7.73595 10.6357 7.52989 10.4296 7.52989 10.1811V8.21144H5.56019C5.31171 8.21144 5.10565 8.00538 5.10565 7.75689C5.10565 7.50841 5.31171 7.30235 5.56019 7.30235H7.52989V5.33265C7.52989 5.08417 7.73595 4.87811 7.98443 4.87811C8.23292 4.87811 8.43898 5.08417 8.43898 5.33265V7.30235H10.4087C10.6572 7.30235 10.8632 7.50841 10.8632 7.75689C10.8632 8.00538 10.6572 8.21144 10.4087 8.21144Z" fill="#101010"/>
</svg>
