<svg width="10" height="10" viewBox="0 0 10 10" fill="none" xmlns="http://www.w3.org/2000/svg">
<path d="M1.25391 4.6748V6.54564C1.25391 8.41647 2.00391 9.16647 3.87474 9.16647H6.12057C7.99141 9.16647 8.74141 8.41647 8.74141 6.54564V4.6748" stroke="#333333" stroke-width="0.5" stroke-linecap="round" stroke-linejoin="round"/>
<path d="M5.00085 4.99967C5.76335 4.99967 6.32585 4.37884 6.25085 3.61634L5.97585 0.833008H4.03002L3.75085 3.61634C3.67585 4.37884 4.23835 4.99967 5.00085 4.99967Z" stroke="#333333" stroke-width="0.5" stroke-linecap="round" stroke-linejoin="round"/>
<path d="M7.62982 4.99967C8.47148 4.99967 9.08815 4.31634 9.00482 3.47884L8.88815 2.33301C8.73815 1.24967 8.32148 0.833008 7.22982 0.833008H5.95898L6.25065 3.75384C6.32148 4.44134 6.94232 4.99967 7.62982 4.99967Z" stroke="#333333" stroke-width="0.5" stroke-linecap="round" stroke-linejoin="round"/>
<path d="M2.34934 4.99967C3.03684 4.99967 3.65767 4.44134 3.72434 3.75384L3.81601 2.83301L4.01601 0.833008H2.74517C1.65351 0.833008 1.23684 1.24967 1.08684 2.33301L0.974341 3.47884C0.891007 4.31634 1.50767 4.99967 2.34934 4.99967Z" stroke="#333333" stroke-width="0.5" stroke-linecap="round" stroke-linejoin="round"/>
<path d="M5.00065 7.08301C4.30482 7.08301 3.95898 7.42884 3.95898 8.12467V9.16634H6.04232V8.12467C6.04232 7.42884 5.69648 7.08301 5.00065 7.08301Z" stroke="#333333" stroke-width="0.5" stroke-linecap="round" stroke-linejoin="round"/>
</svg>
