<svg width="24" height="25" viewBox="0 0 24 25" fill="none" xmlns="http://www.w3.org/2000/svg">
<path d="M21.5609 11.2401L20.2009 9.66006C19.9409 9.36006 19.7309 8.80006 19.7309 8.40006V6.70006C19.7309 5.64006 18.8609 4.77006 17.8009 4.77006H16.1009C15.7109 4.77006 15.1409 4.56006 14.8409 4.30006L13.2609 2.94006C12.5709 2.35006 11.4409 2.35006 10.7409 2.94006L9.17086 4.31006C8.87086 4.56006 8.30086 4.77006 7.91086 4.77006H6.18086C5.12086 4.77006 4.25086 5.64006 4.25086 6.70006V8.41006C4.25086 8.80006 4.04086 9.36006 3.79086 9.66006L2.44086 11.2501C1.86086 11.9401 1.86086 13.0601 2.44086 13.7501L3.79086 15.3401C4.04086 15.6401 4.25086 16.2001 4.25086 16.5901V18.3001C4.25086 19.3601 5.12086 20.2301 6.18086 20.2301H7.91086C8.30086 20.2301 8.87086 20.4401 9.17086 20.7001L10.7509 22.0601C11.4409 22.6501 12.5709 22.6501 13.2709 22.0601L14.8509 20.7001C15.1509 20.4401 15.7109 20.2301 16.1109 20.2301H17.8109C18.8709 20.2301 19.7409 19.3601 19.7409 18.3001V16.6001C19.7409 16.2101 19.9509 15.6401 20.2109 15.3401L21.5709 13.7601C22.1509 13.0701 22.1509 11.9301 21.5609 11.2401ZM16.1609 10.6101L11.3309 15.4401C11.1909 15.5801 11.0009 15.6601 10.8009 15.6601C10.6009 15.6601 10.4109 15.5801 10.2709 15.4401L7.85086 13.0201C7.56086 12.7301 7.56086 12.2501 7.85086 11.9601C8.14086 11.6701 8.62086 11.6701 8.91086 11.9601L10.8009 13.8501L15.1009 9.55006C15.3909 9.26006 15.8709 9.26006 16.1609 9.55006C16.4509 9.84006 16.4509 10.3201 16.1609 10.6101Z" fill="#04B200"/>
</svg>
