<svg width="40" height="40" viewBox="0 0 40 40" fill="none" xmlns="http://www.w3.org/2000/svg">
<path d="M20.0007 3.33301C10.8173 3.33301 3.33398 10.8163 3.33398 19.9997C3.33398 29.183 10.8173 36.6663 20.0007 36.6663C29.184 36.6663 36.6673 29.183 36.6673 19.9997C36.6673 10.8163 29.184 3.33301 20.0007 3.33301ZM24.6507 20.883L18.7673 26.7663C18.5173 27.0163 18.2007 27.133 17.884 27.133C17.5673 27.133 17.2507 27.0163 17.0007 26.7663C16.5173 26.283 16.5173 25.483 17.0007 24.9997L22.0007 19.9997L17.0007 14.9997C16.5173 14.5163 16.5173 13.7163 17.0007 13.233C17.484 12.7497 18.284 12.7497 18.7673 13.233L24.6507 19.1163C25.1507 19.5997 25.1507 20.3997 24.6507 20.883Z" fill="white"/>
</svg>
