<svg width="40" height="40" viewBox="0 0 40 40" fill="none" xmlns="http://www.w3.org/2000/svg">
<path d="M19.9993 36.667C29.1827 36.667 36.666 29.1837 36.666 20.0003C36.666 10.817 29.1827 3.33366 19.9994 3.33366C10.816 3.33366 3.33269 10.817 3.33269 20.0003C3.33268 29.1837 10.816 36.667 19.9993 36.667ZM15.3494 19.117L21.2327 13.2337C21.4827 12.9837 21.7994 12.867 22.116 12.867C22.4327 12.867 22.7494 12.9837 22.9994 13.2337C23.4827 13.717 23.4827 14.517 22.9994 15.0003L17.9994 20.0003L22.9994 25.0003C23.4827 25.4837 23.4827 26.2837 22.9994 26.767C22.516 27.2503 21.716 27.2503 21.2327 26.767L15.3494 20.8837C14.8494 20.4003 14.8494 19.6003 15.3494 19.117Z" fill="white"/>
</svg>
