<svg width="17" height="16" viewBox="0 0 17 16" fill="none" xmlns="http://www.w3.org/2000/svg">
<path d="M8.59033 9.33301H9.257C9.99033 9.33301 10.5903 8.73301 10.5903 7.99967V1.33301H4.59033C3.59033 1.33301 2.71701 1.88633 2.26367 2.69967" stroke="#63257B" stroke-width="1.5" stroke-linecap="round" stroke-linejoin="round"/>
<path d="M1.92285 11.333C1.92285 12.4397 2.81618 13.333 3.92285 13.333H4.58952C4.58952 12.5997 5.18952 11.9997 5.92285 11.9997C6.65619 11.9997 7.25619 12.5997 7.25619 13.333H9.92285C9.92285 12.5997 10.5229 11.9997 11.2562 11.9997C11.9895 11.9997 12.5895 12.5997 12.5895 13.333H13.2562C14.3629 13.333 15.2562 12.4397 15.2562 11.333V9.33301H13.2562C12.8895 9.33301 12.5895 9.03301 12.5895 8.66634V6.66634C12.5895 6.29967 12.8895 5.99967 13.2562 5.99967H14.1162L12.9762 4.00635C12.7362 3.59301 12.2962 3.33301 11.8162 3.33301H10.5895V7.99967C10.5895 8.73301 9.98952 9.33301 9.25619 9.33301H8.58952" stroke="#63257B" stroke-width="1.5" stroke-linecap="round" stroke-linejoin="round"/>
<path d="M5.92318 14.6667C6.65956 14.6667 7.25651 14.0697 7.25651 13.3333C7.25651 12.597 6.65956 12 5.92318 12C5.1868 12 4.58984 12.597 4.58984 13.3333C4.58984 14.0697 5.1868 14.6667 5.92318 14.6667Z" stroke="#63257B" stroke-width="1.5" stroke-linecap="round" stroke-linejoin="round"/>
<path d="M11.2562 14.6667C11.9926 14.6667 12.5895 14.0697 12.5895 13.3333C12.5895 12.597 11.9926 12 11.2562 12C10.5198 12 9.92285 12.597 9.92285 13.3333C9.92285 14.0697 10.5198 14.6667 11.2562 14.6667Z" stroke="#63257B" stroke-width="1.5" stroke-linecap="round" stroke-linejoin="round"/>
<path d="M15.2565 8V9.33333H13.2565C12.8898 9.33333 12.5898 9.03333 12.5898 8.66667V6.66667C12.5898 6.3 12.8898 6 13.2565 6H14.1165L15.2565 8Z" stroke="#63257B" stroke-width="1.5" stroke-linecap="round" stroke-linejoin="round"/>
<path d="M1.92285 5.33301H5.92285" stroke="#63257B" stroke-width="1.5" stroke-linecap="round" stroke-linejoin="round"/>
<path d="M1.92285 7.33301H4.58952" stroke="#63257B" stroke-width="1.5" stroke-linecap="round" stroke-linejoin="round"/>
<path d="M1.92285 9.33301H3.25618" stroke="#63257B" stroke-width="1.5" stroke-linecap="round" stroke-linejoin="round"/>
</svg>
