<svg width="17" height="17" viewBox="0 0 17 17" fill="none" xmlns="http://www.w3.org/2000/svg">
<path d="M15.4963 6.01301L15.3029 4.16634C15.0229 2.15301 14.1096 1.33301 12.1563 1.33301H10.5829H9.59628H7.56961H6.58294H4.98294C3.02294 1.33301 2.11628 2.15301 1.82961 4.18634L1.64961 6.01967C1.58294 6.73301 1.77628 7.42634 2.19628 7.96634C2.70294 8.62634 3.48294 8.99967 4.34961 8.99967C5.18961 8.99967 5.99628 8.57967 6.50294 7.90634C6.95628 8.57967 7.72961 8.99967 8.58961 8.99967C9.44961 8.99967 10.2029 8.59967 10.6629 7.93301C11.1763 8.59301 11.9696 8.99967 12.7963 8.99967C13.6829 8.99967 14.4829 8.60634 14.9829 7.91301C15.3829 7.37967 15.5629 6.70634 15.4963 6.01301Z" fill="#101010"/>
<path d="M8.15659 11.6065C7.30992 11.6932 6.66992 12.4132 6.66992 13.2665V15.0932C6.66992 15.2732 6.81659 15.4198 6.99659 15.4198H10.1766C10.3566 15.4198 10.5033 15.2732 10.5033 15.0932V13.4998C10.5099 12.1065 9.68992 11.4465 8.15659 11.6065Z" fill="#101010"/>
<path d="M14.8361 10.1001V12.0867C14.8361 13.9267 13.3428 15.4201 11.5028 15.4201C11.3228 15.4201 11.1761 15.2734 11.1761 15.0934V13.5001C11.1761 12.6467 10.9161 11.9801 10.4094 11.5267C9.96277 11.1201 9.35611 10.9201 8.60277 10.9201C8.43611 10.9201 8.26944 10.9267 8.08944 10.9467C6.90277 11.0667 6.00277 12.0667 6.00277 13.2667V15.0934C6.00277 15.2734 5.85611 15.4201 5.67611 15.4201C3.83611 15.4201 2.34277 13.9267 2.34277 12.0867V10.1134C2.34277 9.64672 2.80277 9.33339 3.23611 9.48672C3.41611 9.54672 3.59611 9.59339 3.78277 9.62005C3.86277 9.63339 3.94944 9.64672 4.02944 9.64672C4.13611 9.66005 4.24277 9.66672 4.34944 9.66672C5.12277 9.66672 5.88277 9.38005 6.48277 8.88672C7.05611 9.38005 7.80277 9.66672 8.58944 9.66672C9.38277 9.66672 10.1161 9.39339 10.6894 8.90005C11.2894 9.38672 12.0361 9.66672 12.7961 9.66672C12.9161 9.66672 13.0361 9.66005 13.1494 9.64672C13.2294 9.64005 13.3028 9.63339 13.3761 9.62005C13.5828 9.59339 13.7694 9.53339 13.9561 9.47339C14.3894 9.32672 14.8361 9.64672 14.8361 10.1001Z" fill="#101010"/>
</svg>
