<svg width="18" height="18" viewBox="0 0 18 18" fill="none" xmlns="http://www.w3.org/2000/svg">
<path d="M9.02831 2.46777C5.32321 2.46777 2.30792 5.37202 2.30661 8.94124C2.30574 10.0826 2.61581 11.1966 3.20371 12.1778L2.25 15.5323L5.81356 14.6321C6.80482 15.1507 7.90701 15.4211 9.02569 15.4204H9.02831C12.7334 15.4204 15.7487 12.5157 15.75 8.94647C15.7509 7.2176 15.0524 5.59019 13.7829 4.36692C12.5139 3.14321 10.8264 2.46821 9.02831 2.46777ZM9.02831 14.3269H9.02613C8.02364 14.3269 7.04032 14.0673 6.18242 13.577L5.97774 13.4603L3.8639 13.9942L4.42829 12.0084L4.29547 11.805C3.73757 10.9541 3.44058 9.9587 3.44105 8.94124C3.44235 5.97429 5.949 3.56127 9.03048 3.56127C10.5225 3.56171 11.9251 4.12218 12.9803 5.13903C14.0355 6.15589 14.616 7.50806 14.6151 8.94603C14.6138 11.913 12.1076 14.3269 9.02787 14.3269H9.02831ZM12.0928 10.2965C11.9247 10.2159 11.099 9.8244 10.9449 9.76997C10.7911 9.7164 10.6792 9.68853 10.5673 9.85053C10.4558 10.0125 10.1336 10.377 10.036 10.4846C9.9376 10.5926 9.83961 10.6057 9.67152 10.5251C9.50342 10.4441 8.96211 10.2734 8.32108 9.72206C7.82158 9.29355 7.48452 8.764 7.38653 8.60156C7.28855 8.44 7.37608 8.35247 7.46013 8.2719C7.53547 8.20005 7.62823 8.08334 7.71184 7.98884C7.79545 7.89434 7.82332 7.82684 7.87994 7.71884C7.93568 7.61127 7.90781 7.51634 7.86556 7.43577C7.82332 7.35434 7.488 6.55827 7.34734 6.23471C7.21147 5.91942 7.07298 5.96166 6.96977 5.95643C6.87179 5.95208 6.76031 5.95077 6.64752 5.95077C6.53647 5.95077 6.354 5.99127 6.19984 6.15327C6.04611 6.31527 5.61194 6.70634 5.61194 7.5024C5.61194 8.2989 6.21377 9.06797 6.29782 9.17597C6.38187 9.28353 7.48234 10.9179 9.16723 11.619C9.56787 11.785 9.88055 11.8847 10.1249 11.9596C10.5272 12.0828 10.8935 12.065 11.1826 12.0236C11.5049 11.977 12.1764 11.6325 12.3158 11.255C12.456 10.8774 12.456 10.5534 12.4142 10.4859C12.3733 10.4184 12.2609 10.3779 12.0928 10.2965Z" fill="#333333"/>
</svg>
